<svg width="41" height="40" viewBox="0 0 41 40" version="1.1" xmlns="http://www.w3.org/2000/svg" xmlns:xlink="http://www.w3.org/1999/xlink">
<title>&#208;&#160;&#208;&#181;&#209;&#129;&#209;&#131;&#209;&#128;&#209;&#129; 4</title>
<desc>Created using Figma</desc>
<g id="Canvas" transform="translate(-19994 -24830)">
<g id="&#208;&#160;&#208;&#181;&#209;&#129;&#209;&#131;&#209;&#128;&#209;&#129; 4">
<g id="&#208;&#161;&#208;&#187;&#208;&#190;&#208;&#185; 2">
<g id="&#208;&#161;&#208;&#187;&#208;&#190;&#208;&#185; 1">
<g id="Vector">
<use xlink:href="#path0_fill" transform="translate(19994 24830)" fill="url(#paint0_linear)"/>
</g>
</g>
</g>
</g>
</g>
<defs>
<linearGradient id="paint0_linear" x1="0" y1="0" x2="1" y2="0" gradientUnits="userSpaceOnUse" gradientTransform="matrix(-16.9101 44.6624 -50.1145 -52.1637 62.3257 17.7063)">
<stop offset="0" stop-color="#0054A6"/>
<stop offset="1" stop-color="#2E3192"/>
</linearGradient>
<path id="path0_fill" d="M 33.9201 9.11364L 32.2169 8.86864L 33.4319 11.3471L 33.5795 11.3471C 34.6318 11.4957 35.6215 11.9377 36.4359 12.6228C 37.2503 13.308 37.8568 14.2088 38.1863 15.2227C 38.5157 16.2367 38.555 17.3231 38.2997 18.3584C 38.0443 19.3936 37.5046 20.3362 36.7418 21.0788L 35.771 22.036L 33.5908 24.1612L 32.6711 25.0671L 30.6954 26.9873L 30.2298 24.2695L 35.1521 19.4549C 35.6067 19.0094 35.928 18.4452 36.0797 17.826C 36.2315 17.2069 36.2078 16.5575 36.0111 15.9512C 35.8144 15.3449 35.4527 14.8058 34.9669 14.395C 34.481 13.9841 33.8903 13.7179 33.2616 13.6262L 31.9274 13.4325L 30.7067 10.9483L 29.4918 8.46981L 28.1065 5.69504L 27.4933 4.44155C 26.8364 3.10814 25.8211 1.98562 24.5621 1.20076C 23.303 0.415913 21.8504 -9.49887e-11 20.3682 -9.49889e-11C 18.886 -9.49878e-11 17.4333 0.415913 16.1743 1.20076C 14.9152 1.98562 13.8999 3.10814 13.243 4.44155L 12.4936 5.99132L 15.2131 5.59818L 15.2869 5.45004C 15.7554 4.49587 16.4808 3.69239 17.3808 3.13054C 18.2808 2.56869 19.3196 2.27091 20.3795 2.27091C 21.4395 2.27091 22.4783 2.56869 23.3783 3.13054C 24.2783 3.69239 25.0036 4.49587 25.4722 5.45004L 26.0796 6.69213L 27.658 9.89423L 29.2079 13.045L 26.4714 12.6462L 23.4169 6.45853C 23.1356 5.88663 22.7004 5.40513 22.1607 5.06846C 21.6209 4.73178 20.998 4.55336 20.3625 4.55336C 19.727 4.55336 19.1041 4.73178 18.5643 5.06846C 18.0246 5.40513 17.5894 5.88663 17.3081 6.45853L 16.6949 7.70062L 13.9811 8.08806L 11.2559 8.4755L 9.08717 8.79457L 6.81621 9.11364C 5.3461 9.32596 3.96467 9.94741 2.82858 10.9075C 1.69248 11.8676 0.847174 13.128 0.388503 14.5457C -0.0701686 15.9634 -0.12385 17.4817 0.233546 18.9285C 0.590942 20.3753 1.34511 21.6926 2.41055 22.7311L 3.64254 23.9276L 4.10809 21.1984L 3.97751 21.0788C 3.22794 20.334 2.69991 19.3945 2.45264 18.3654C 2.20537 17.3364 2.24863 16.2586 2.57758 15.2528C 2.90653 14.2471 3.50815 13.3532 4.31498 12.6714C 5.12182 11.9895 6.10196 11.5468 7.1455 11.3927L 9.41646 11.0623L 10.2624 10.9369L 15.4913 10.1848L 14.265 12.6462L 7.45208 13.6376C 6.82473 13.7319 6.23607 14.0001 5.75241 14.412C 5.26875 14.8239 4.9093 15.3631 4.71455 15.969C 4.51981 16.5749 4.4975 17.2233 4.65015 17.8412C 4.8028 18.4591 5.12433 19.0219 5.57854 19.4663L 6.56073 20.4292L 6.09518 23.1527L 5.62964 25.8819L 5.11299 28.839L 4.86319 30.309C 4.60666 31.7783 4.7658 33.2904 5.32253 34.6735C 5.87927 36.0565 6.81129 37.2553 8.01276 38.1335C 9.21424 39.0117 10.637 39.5342 12.1195 39.6417C 13.602 39.7492 15.0849 39.4373 16.3997 38.7416L 17.9326 37.9325L 15.5026 36.622L 15.3493 36.7018C 14.4116 37.1981 13.3541 37.421 12.2966 37.3452C 11.2391 37.2694 10.2239 36.8979 9.3659 36.2729C 8.50794 35.6479 7.84149 34.7943 7.44204 33.8087C 7.04259 32.8231 6.9261 31.745 7.10576 30.6964L 7.38395 29.2264L 8.51943 22.355L 10.4838 24.2809L 9.34833 31.0782C 9.23993 31.7074 9.30931 32.3546 9.54862 32.9463C 9.78793 33.538 10.1876 34.0506 10.7023 34.426C 11.2171 34.8015 11.8263 35.0247 12.461 35.0704C 13.0957 35.1162 13.7304 34.9826 14.2934 34.6848L 15.497 34.0467L 15.9739 34.2974L 17.9326 35.323L 20.7315 36.8044L 21.7194 37.3285L 22.3496 37.659L 23.786 38.4225L 24.3537 38.7074C 25.6652 39.3954 27.1421 39.7023 28.618 39.5936C 30.0939 39.4848 31.5102 38.9647 32.7075 38.0918C 33.9048 37.2189 34.8355 36.0279 35.3948 34.6529C 35.9541 33.2778 36.1198 31.7734 35.8732 30.309L 35.5779 28.5997L 33.5965 30.5255L 33.6306 30.7135C 33.8057 31.7601 33.6861 32.8348 33.2853 33.8168C 32.8844 34.7988 32.2183 35.6489 31.362 36.2714C 30.5056 36.8939 29.4931 37.264 28.4384 37.34C 27.3838 37.4161 26.3289 37.195 25.3927 36.7018L 23.4113 35.6534L 17.9269 32.759L 20.3625 31.4713L 26.4487 34.6848C 27.0114 34.981 27.6455 35.1133 28.2792 35.0668C 28.913 35.0203 29.5211 34.7968 30.0349 34.4216C 30.5488 34.0465 30.9478 33.5345 31.1869 32.9437C 31.426 32.3529 31.4957 31.7067 31.388 31.0782L 31.1552 29.7278L 31.723 29.1581L 33.131 27.7849L 37.1052 23.9162L 37.3663 23.6598L 38.0419 22.9818L 38.3031 22.7311C 39.3681 21.6941 40.1226 20.3786 40.4811 18.9335C 40.8396 17.4884 40.7879 15.9714 40.3318 14.5543C 39.8757 13.1372 39.0334 11.8765 37.9002 10.915C 36.7671 9.95346 35.3884 9.32947 33.9201 9.11364ZM 27.5047 32.6678L 20.8905 29.1752C 20.7276 29.0893 20.5464 29.0445 20.3625 29.0445C 20.1785 29.0445 19.9974 29.0893 19.8345 29.1752L 13.226 32.6678C 13.0383 32.7682 12.8262 32.8135 12.614 32.7988C 12.4018 32.7841 12.198 32.7098 12.0258 32.5845C 11.8536 32.4592 11.72 32.2879 11.6401 32.0901C 11.5602 31.8923 11.5372 31.6759 11.5739 31.4656L 12.8399 24.0587C 12.8657 23.8776 12.8477 23.6931 12.7874 23.5205C 12.7271 23.348 12.6264 23.1925 12.4936 23.0673L 7.1455 17.8368C 6.99232 17.6885 6.88375 17.5 6.83217 17.2928C 6.78059 17.0856 6.78808 16.868 6.85378 16.6648C 6.91948 16.4617 7.04075 16.2811 7.20376 16.1438C 7.36676 16.0065 7.56494 15.9179 7.77569 15.8882L 15.1563 14.8113C 15.3387 14.7854 15.512 14.7152 15.6614 14.607C 15.8107 14.4989 15.9316 14.3558 16.0136 14.1903L 19.3179 7.46701C 19.4114 7.27588 19.5565 7.11489 19.7367 7.0023C 19.9168 6.88971 20.1247 6.83003 20.3369 6.83003C 20.5492 6.83003 20.7571 6.88971 20.9372 7.0023C 21.1174 7.11489 21.2625 7.27588 21.356 7.46701L 24.6603 14.1903C 24.7454 14.3602 24.8716 14.5061 25.0273 14.6146C 25.183 14.723 25.3632 14.7907 25.5516 14.8113L 32.9323 15.8882C 33.1426 15.9188 33.3401 16.008 33.5023 16.1457C 33.6646 16.2834 33.7851 16.464 33.8502 16.667C 33.9152 16.87 33.9222 17.0872 33.8704 17.294C 33.8185 17.5008 33.7098 17.6889 33.5568 17.8368L 28.2087 23.0673C 28.0774 23.1965 27.9793 23.3558 27.923 23.5315C 27.8666 23.7071 27.8536 23.8939 27.8851 24.0757L 29.1454 31.4827C 29.1768 31.6901 29.1506 31.9022 29.0695 32.0956C 28.9885 32.289 28.8558 32.4562 28.6861 32.5788C 28.5165 32.7013 28.3164 32.7745 28.1079 32.7902C 27.8994 32.8059 27.6907 32.7636 27.5047 32.6678Z"/>
</defs>
</svg>
