<svg width="44" height="40" viewBox="0 0 44 40" version="1.1" xmlns="http://www.w3.org/2000/svg" xmlns:xlink="http://www.w3.org/1999/xlink">
<title>&#208;&#160;&#208;&#181;&#209;&#129;&#209;&#131;&#209;&#128;&#209;&#129; 3</title>
<desc>Created using Figma</desc>
<g id="Canvas" transform="translate(-19993 -23983)">
<g id="&#208;&#160;&#208;&#181;&#209;&#129;&#209;&#131;&#209;&#128;&#209;&#129; 3">
<g id="&#208;&#161;&#208;&#187;&#208;&#190;&#208;&#185; 2">
<g id="&#208;&#161;&#208;&#187;&#208;&#190;&#208;&#185; 1">
<g id="Vector">
<use xlink:href="#path0_fill" transform="translate(19993 23983)" fill="url(#paint0_linear)"/>
</g>
</g>
</g>
</g>
</g>
<defs>
<linearGradient id="paint0_linear" x1="0" y1="0" x2="1" y2="0" gradientUnits="userSpaceOnUse" gradientTransform="matrix(-17.9057 44.762 -53.065 -52.2799 65.9951 17.7458)">
<stop offset="0" stop-color="#0054A6"/>
<stop offset="1" stop-color="#2E3192"/>
</linearGradient>
<path id="path0_fill" d="M 41.9728 26.931L 28.9602 4.28277C 28.2135 2.98096 27.1381 1.89964 25.8424 1.14776C 24.5466 0.395882 23.0763 -2.73517e-10 21.5796 -2.73518e-10C 20.0828 -2.73517e-10 18.6125 0.395882 17.3168 1.14776C 16.0211 1.89964 14.9457 2.98096 14.199 4.28277L 1.14094 26.931C 0.393266 28.2307 -0.000239397 29.705 1.0911e-07 31.2057C 0.000239616 32.7064 0.394216 34.1805 1.14231 35.4799C 1.8904 36.7793 2.96623 37.8581 4.2616 38.6079C 5.55697 39.3576 7.02621 39.7518 8.52157 39.7508L 34.5808 39.7508C 36.0772 39.7538 37.5478 39.361 38.8448 38.6121C 40.1417 37.8632 41.2192 36.7846 41.9686 35.4849C 42.7181 34.1851 43.113 32.7102 43.1138 31.2085C 43.1145 29.7069 42.721 28.2315 41.9728 26.931ZM 34.5922 37.4717L 8.52157 37.4717C 7.60053 37.4761 6.69019 37.2737 5.85717 36.8794C 5.02415 36.485 4.28954 35.9087 3.70713 35.1927L 34.5865 35.1927C 35.1003 35.1954 35.6096 35.0967 36.0854 34.9021L 34.9158 32.8851C 34.8062 32.8941 34.6961 32.8941 34.5865 32.8851L 2.53191 32.8851C 2.29192 32.0808 2.21849 31.2357 2.31613 30.4018C 2.41377 29.568 2.68041 28.763 3.09965 28.0364L 16.1577 5.38811C 16.6201 4.56946 17.2632 3.86802 18.0377 3.33764C 18.8123 2.80725 19.6976 2.46203 20.6258 2.32846L 18.4286 6.06044C 18.3224 6.20322 18.2239 6.35157 18.1334 6.50486L 16.8787 8.69277L 5.11512 29.2101C 4.86068 29.6486 4.69297 30.1322 4.62119 30.6345L 6.93189 30.6345C 6.9629 30.537 7.0048 30.4434 7.0568 30.3553L 18.4116 10.6357L 18.8317 9.91207L 18.8658 9.8494L 20.2738 7.45637L 21.9486 4.60753L 22.8911 3.00649L 23.1749 2.52218C 23.9688 2.72684 24.7138 3.08887 25.3661 3.58694C 26.0184 4.08501 26.5648 4.70905 26.9731 5.4223L 40.0312 28.0706C 40.4961 28.8649 40.7777 29.7538 40.8554 30.6718C 40.933 31.5897 40.8046 32.5135 40.4797 33.3751L 36.8177 27.0507L 36.7099 26.8627L 24.986 6.56184C 24.7444 6.14189 24.4289 5.76932 24.0549 5.46218L 22.8627 7.48486C 22.9201 7.55228 22.9714 7.62474 23.016 7.70137L 34.3027 27.29L 34.7171 28.0136L 34.9328 28.3839L 35.0577 28.6005L 35.1088 28.6916L 37.8681 33.4549L 38.7424 34.9591L 39.0887 35.5288C 38.512 36.1432 37.816 36.6325 37.0436 36.9667C 36.2713 37.3008 35.4389 37.4727 34.5979 37.4717L 34.5922 37.4717Z"/>
</defs>
</svg>
