<svg width="49" height="49" viewBox="0 0 49 49" version="1.1" xmlns="http://www.w3.org/2000/svg" xmlns:xlink="http://www.w3.org/1999/xlink">
<title>&#208;&#160;&#208;&#181;&#209;&#129;&#209;&#131;&#209;&#128;&#209;&#129; 2</title>
<desc>Created using Figma</desc>
<g id="Canvas" transform="translate(-19990 -24369)">
<g id="&#208;&#160;&#208;&#181;&#209;&#129;&#209;&#131;&#209;&#128;&#209;&#129; 2">
<g id="&#208;&#161;&#208;&#187;&#208;&#190;&#208;&#185; 2">
<g id="&#208;&#161;&#208;&#187;&#208;&#190;&#208;&#185; 1">
<g id="Vector">
<use xlink:href="#path0_fill" transform="translate(19990 24369)" fill="url(#paint0_linear)"/>
</g>
</g>
</g>
</g>
</g>
<defs>
<linearGradient id="paint0_linear" x1="0" y1="0" x2="1" y2="0" gradientUnits="userSpaceOnUse" gradientTransform="matrix(-20.2178 55.0137 -59.9172 -64.2534 74.5169 21.81)">
<stop offset="0" stop-color="#0054A6"/>
<stop offset="1" stop-color="#2E3192"/>
</linearGradient>
<path id="path0_fill" d="M 17.9165 2.67083L 2.66133 17.9805C 1.8176 18.827 1.1483 19.8321 0.691665 20.9383C 0.235029 22.0445 5.78657e-12 23.2301 5.78449e-12 24.4274C 5.78579e-12 25.6248 0.235029 26.8104 0.691665 27.9165C 1.1483 29.0227 1.8176 30.0278 2.66133 30.8743L 17.9165 46.184C 18.7601 47.0307 19.7615 47.7024 20.8638 48.1607C 21.966 48.619 23.1474 48.8548 24.3405 48.8548C 25.5336 48.8548 26.715 48.619 27.8172 48.1607C 28.9194 47.7024 29.9209 47.0307 30.7645 46.184L 46.0197 30.8743C 46.8634 30.0278 47.5327 29.0227 47.9893 27.9165C 48.446 26.8104 48.681 25.6248 48.681 24.4274C 48.681 23.2301 48.446 22.0445 47.9893 20.9383C 47.5327 19.8321 46.8634 18.827 46.0197 17.9805L 30.7645 2.67083C 29.9209 1.82409 28.9194 1.1524 27.8172 0.694135C 26.715 0.235869 25.5336 5.80678e-12 24.3405 5.80528e-12C 23.1474 5.80662e-12 21.966 0.235869 20.8638 0.694135C 19.7615 1.1524 18.7601 1.82409 17.9165 2.67083ZM 44.413 19.5929C 45.0895 20.2715 45.616 21.0853 45.9584 21.9816C 46.3008 22.8779 46.4512 23.8364 46.4 24.7949L 41.0406 19.4277L 27.5511 5.89002L 25.9444 7.50247L 39.4395 21.0458L 41.1995 22.8121L 41.2506 22.8691L 43.9758 25.604L 45.679 27.3133L 45.8153 27.1765C 45.477 27.9567 44.9955 28.666 44.3959 29.2676L 29.1578 44.5716C 28.4805 45.2502 27.6684 45.778 26.7743 46.1206C 25.8802 46.4632 24.9242 46.613 23.9686 46.5601L 27.5511 42.9591L 28.9874 41.5176L 42.8062 27.6495L 41.1995 26.037L 27.3807 39.8824L 25.9444 41.3467C 25.9093 41.3838 25.8713 41.4181 25.8308 41.4492L 23.1624 44.1385L 21.4024 45.9048C 20.7017 45.5738 20.0638 45.1226 19.5175 44.5716L 4.26803 29.2619C 3.58802 28.5831 3.05849 27.7678 2.71411 26.8694C 2.36973 25.971 2.21825 25.0097 2.26959 24.0485L 5.85771 27.6495L 7.16351 28.9542L 21.1299 42.9591L 22.7082 41.341L 8.77589 27.3475L 7.47577 26.037L 7.37925 25.9231L 4.69384 23.2395L 2.93385 21.4732C 3.26378 20.7685 3.71549 20.1281 4.26803 19.5815L 19.5232 4.28328C 20.1983 3.6023 21.0089 3.07174 21.902 2.72618C 22.7951 2.38061 23.7508 2.2278 24.7067 2.27769L 19.5346 7.48537L 5.86906 21.2054L 7.48145 22.7893L 21.1413 9.11491L 22.7309 7.51956L 22.7877 7.47398L 25.5129 4.7277L 27.2502 2.94432C 27.9567 3.27374 28.5988 3.72719 29.1464 4.28328L 44.413 19.5929Z"/>
</defs>
</svg>
