<svg width="40" height="40" xmlns="http://www.w3.org/2000/svg" xmlns:xlink="http://www.w3.org/1999/xlink"><use xlink:href="#path0_fill" fill="url(#paint0_linear)"/><defs><linearGradient id="paint0_linear" x2="1" gradientUnits="userSpaceOnUse" gradientTransform="matrix(-16.5053 44.9116 -48.9148 -52.4547 60.834 17.805)"><stop offset="0" stop-color="#0054A6"/><stop offset="1" stop-color="#2E3192"/></linearGradient><path id="path0_fill" d="M5.82 5.842a19.964 19.964 0 0 0-5.438 10.21 20.008 20.008 0 0 0 1.13 11.522 19.927 19.927 0 0 0 7.32 8.95 19.821 19.821 0 0 0 11.039 3.36c3.93 0 7.772-1.17 11.04-3.36a19.927 19.927 0 0 0 7.318-8.95 20.009 20.009 0 0 0 1.131-11.522 19.964 19.964 0 0 0-5.438-10.21 19.867 19.867 0 0 0-6.446-4.324 19.81 19.81 0 0 0-15.21 0A19.866 19.866 0 0 0 5.82 5.842zm26.496 26.59a17.496 17.496 0 0 1-7.71 4.525l5.938-5.972c.06-.05.117-.103.17-.16a15.4 15.4 0 0 0 4.196-7.858 15.435 15.435 0 0 0-.853-8.875 15.372 15.372 0 0 0-5.615-6.91A15.29 15.29 0 0 0 19.95 4.56l-2.486 2.507a13.016 13.016 0 0 1 8.082 1.083 13.079 13.079 0 0 1 5.866 5.684 13.145 13.145 0 0 1-2.31 15.374c-.056.057-.108.114-.164.165l-5.513 5.532-2.657 2.701a17.558 17.558 0 0 1-11.965-3.89A17.676 17.676 0 0 1 2.48 22.804a17.714 17.714 0 0 1 2.549-12.36 17.605 17.605 0 0 1 10.118-7.497L9.175 8.93l-.142.136a15.4 15.4 0 0 0-4.191 7.859 15.435 15.435 0 0 0 .855 8.871 15.372 15.372 0 0 0 5.613 6.907 15.29 15.29 0 0 0 8.487 2.624l2.498-2.507a13.017 13.017 0 0 1-8.09-1.073 13.08 13.08 0 0 1-5.875-5.683 13.145 13.145 0 0 1 2.31-15.385l.158-.154c.103-.103.205-.2.307-.29l5.206-5.231 2.669-2.723a17.551 17.551 0 0 1 10.122 2.585 17.644 17.644 0 0 1 6.879 7.888 17.72 17.72 0 0 1 1.214 10.41 17.683 17.683 0 0 1-4.88 9.269z"/></defs></svg>