<svg width="90" height="108" xmlns="http://www.w3.org/2000/svg" xmlns:xlink="http://www.w3.org/1999/xlink"><g fill="#FFF"><use xlink:href="#path0_fill"/><use xlink:href="#path1_fill"/><use xlink:href="#path2_fill"/><use xlink:href="#path3_fill"/><use xlink:href="#path4_fill"/><use xlink:href="#path5_fill"/><use xlink:href="#path6_fill"/><use xlink:href="#path7_fill"/><use xlink:href="#path8_fill"/><use xlink:href="#path9_fill"/><use xlink:href="#path10_fill"/><use xlink:href="#path11_fill"/><use xlink:href="#path12_fill"/><use xlink:href="#path13_fill"/><use xlink:href="#path14_fill"/></g><defs><path id="path0_fill" d="M14.156 28h1.716l1.32-2.292c.276-.492.516-1.008.516-1.008h.024s.252.516.528 1.008L19.592 28h1.728l-2.652-4.32 2.556-4.2H19.46l-1.188 2.088a14.376 14.376 0 0 0-.528 1.032h-.024s-.264-.54-.528-1.032l-1.176-2.088h-1.764l2.544 4.2-2.64 4.32z"/><path id="path1_fill" d="M21.522 24.94c0 1.884 1.5 3.204 3.36 3.204 1.86 0 3.36-1.32 3.36-3.204 0-1.872-1.5-3.204-3.372-3.204-1.848 0-3.348 1.332-3.348 3.204zm1.548 0c0-1.128.816-1.908 1.812-1.908.996 0 1.824.78 1.824 1.908 0 1.14-.828 1.908-1.824 1.908-.996 0-1.812-.768-1.812-1.908z"/><path id="path2_fill" d="M31.204 25.972c.66 0 1.284-.192 1.656-.396h.024s-.012.18-.012.336V28h1.512v-6.12h-1.512v2.436c-.24.168-.66.384-1.188.384-.804 0-1.044-.444-1.044-1.02v-1.8h-1.5v2.052c0 1.428.888 2.04 2.064 2.04z"/><path id="path3_fill" d="M35.871 28.984l-.504 1.14s.54.396 1.272.396c.9 0 1.788-.48 2.208-1.596l2.724-7.044h-1.656l-1.2 3.552c-.096.324-.204.804-.204.804h-.024s-.108-.504-.228-.828l-1.284-3.528H35.26l2.58 6.024-.228.54c-.228.54-.648.792-1.068.792-.336 0-.672-.252-.672-.252z"/><path id="path4_fill" d="M45.566 28h1.524v-2.484h.792L49.49 28h1.764l-2.184-3.18v-.024l1.944-2.916h-1.692l-1.488 2.34h-.744v-2.34h-1.524V28z"/><path id="path5_fill" d="M55.152 28h2.904c1.284 0 2.28-.552 2.28-1.776 0-.612-.348-1.212-1.08-1.404v-.012c.516-.252.804-.78.804-1.344 0-1.032-.828-1.584-2.064-1.584h-2.844V28zm1.524-3.6v-1.524h.972c.6 0 .876.276.876.72 0 .468-.276.804-.852.804h-.996zm0 2.592v-1.644h1.116c.66 0 1.008.336 1.008.828 0 .468-.324.816-1.008.816h-1.116z"/><path id="path6_fill" d="M61.141 26.308c0 1.116.912 1.836 2.016 1.836.828 0 1.56-.456 1.932-1.104h.024s-.036.192-.036.444V28h1.416v-3.828c0-1.548-.948-2.436-2.544-2.436-.912 0-1.896.348-2.4.756l.564 1.092c.492-.336 1.104-.588 1.704-.588.636 0 1.152.276 1.152 1.08v.084h-.264c-1.356 0-3.564.312-3.564 2.148zm1.512-.132c0-.864 1.296-.972 2.064-.972h.264v.168c0 .744-.552 1.608-1.404 1.608-.612 0-.924-.396-.924-.804z"/><path id="path7_fill" d="M67.79 28h1.465l.216-3.312c.024-.408-.012-1.044-.012-1.044h.024s.204.48.372.9l1.2 2.688h1.26l1.2-2.7c.192-.432.36-.888.36-.888h.024s-.024.636-.012 1.044L74.103 28h1.464l-.552-6.12H73.31l-1.32 3.156c-.132.348-.3.78-.3.78h-.024s-.156-.444-.3-.78L70.07 21.88h-1.728L67.79 28z"/><path id="path8_fill" d="M77.2 25.54h1.333l.12-6.06H77.08l.12 6.06zM77.13 28h1.476v-1.428h-1.476V28z"/><path id="path9_fill" fill-rule="evenodd" d="M4 4v100h68.418L86 91.267V4H4zM2 0h86a2 2 0 0 1 2 2v90.133a2 2 0 0 1-.632 1.46l-14.791 13.866c-.37.348-.86.541-1.368.541H2a2 2 0 0 1-2-2V2a2 2 0 0 1 2-2z"/><path id="path10_fill" fill-rule="evenodd" d="M70.5 90H88v4H74.5v11.5h-4V90z"/><path id="path11_fill" d="M14 45a2 2 0 0 1 2-2h59a2 2 0 1 1 0 4H16a2 2 0 0 1-2-2z"/><path id="path12_fill" d="M14 56a2 2 0 0 1 2-2h59a2 2 0 1 1 0 4H16a2 2 0 0 1-2-2z"/><path id="path13_fill" d="M14 67a2 2 0 0 1 2-2h59a2 2 0 1 1 0 4H16a2 2 0 0 1-2-2z"/><path id="path14_fill" d="M14 78a2 2 0 0 1 2-2h47a2 2 0 1 1 0 4H16a2 2 0 0 1-2-2z"/></defs></svg>