<svg width="48" height="64" xmlns="http://www.w3.org/2000/svg" xmlns:xlink="http://www.w3.org/1999/xlink"><g transform="translate(1 57)"><use xlink:href="#path0_fill" fill="#FFF"/><use xlink:href="#path1_stroke" fill="#5592BC"/></g><g transform="translate(5 23)"><use xlink:href="#path2_fill" fill="#87CFFF"/><use xlink:href="#path3_stroke" fill="#5592BC"/></g><g transform="translate(21 23)"><use xlink:href="#path2_fill" fill="#87CFFF"/><use xlink:href="#path3_stroke" fill="#5592BC"/></g><g transform="translate(37 23)"><use xlink:href="#path2_fill" fill="#87CFFF"/><use xlink:href="#path3_stroke" fill="#5592BC"/></g><g transform="translate(1 1)"><use xlink:href="#path4_fill" fill="#FFF"/><use xlink:href="#path5_stroke" fill="#5592BC"/></g><g transform="translate(20 8)"><use xlink:href="#path6_fill" fill="#87CFFF"/><use xlink:href="#path7_stroke" fill="#5592BC"/></g><defs><path id="path0_fill" d="M46 0H0v6h46V0z"/><path id="path1_stroke" d="M0 0v-1a1 1 0 0 0-1 1h1zm46 0h1a1 1 0 0 0-1-1v1zm0 6v1a1 1 0 0 0 1-1h-1zM0 6h-1a1 1 0 0 0 1 1V6zm0-5h46v-2H0v2zm45-1v6h2V0h-2zm1 5H0v2h46V5zM1 6V0h-2v6h2z"/><path id="path2_fill" d="M6 0H0v34h6V0z"/><path id="path3_stroke" d="M0 0v-1h-1v1h1zm6 0h1v-1H6v1zm0 34v1h1v-1H6zm-6 0h-1v1h1v-1zM0 1h6v-2H0v2zm5-1v34h2V0H5zm1 33H0v2h6v-2zm-5 1V0h-2v34h2z"/><path id="path4_fill" d="M46 22H0v-5L23 0l23 17v5z"/><path id="path5_stroke" d="M46 22v1a1 1 0 0 0 1-1h-1zM0 22h-1a1 1 0 0 0 1 1v-1zm0-5l-.594-.804A1 1 0 0 0-1 17h1zM23 0l.594-.804a1 1 0 0 0-1.188 0L23 0zm23 17h1a1 1 0 0 0-.406-.804L46 17zm0 4H0v2h46v-2zM1 22v-5h-2v5h2zm-.406-4.196l23-17-1.188-1.608-23 17 1.188 1.608zm21.812-17l23 17 1.188-1.608-23-17L22.406.804zM45 17v5h2v-5h-2z"/><path id="path6_fill" d="M4 8a4 4 0 1 0 0-8 4 4 0 0 0 0 8z"/><path id="path7_stroke" d="M7 4a3 3 0 0 1-3 3v2a5 5 0 0 0 5-5H7zM4 7a3 3 0 0 1-3-3h-2a5 5 0 0 0 5 5V7zM1 4a3 3 0 0 1 3-3v-2a5 5 0 0 0-5 5h2zm3-3a3 3 0 0 1 3 3h2a5 5 0 0 0-5-5v2z"/></defs></svg>