<svg width="50" height="60" xmlns="http://www.w3.org/2000/svg" xmlns:xlink="http://www.w3.org/1999/xlink"><g opacity=".9"><use xlink:href="#path0_fill" fill="url(#paint0_linear)"/><use xlink:href="#path1_fill" fill="url(#paint1_linear)"/></g><defs><linearGradient id="paint0_linear" x2="1" gradientUnits="userSpaceOnUse" gradientTransform="matrix(-20.7656 67.5638 -61.5407 -78.9114 76.536 26.785)"><stop offset="0" stop-color="#0054A6"/><stop offset="1" stop-color="#2E3192"/></linearGradient><linearGradient id="paint1_linear" x2="1" gradientUnits="userSpaceOnUse" gradientTransform="matrix(-20.7656 67.5638 -61.5407 -78.9114 76.536 26.785)"><stop offset="0" stop-color="#0054A6"/><stop offset="1" stop-color="#2E3192"/></linearGradient><path id="path0_fill" d="M34.614 0c-2.112 0-3.846 1.745-3.846 3.871s1.734 3.87 3.846 3.87c2.113 0 3.847-1.744 3.847-3.87C38.46 1.745 36.727 0 34.614 0zm0 1.935c1.074 0 1.923.856 1.923 1.936s-.85 1.935-1.923 1.935a1.915 1.915 0 0 1-1.923-1.935c0-1.08.85-1.936 1.923-1.936zm-7.692 3.871c-1.581 0-2.884 1.312-2.884 2.904 0 1.592 1.303 2.903 2.884 2.903 1.582 0 2.885-1.311 2.885-2.903s-1.303-2.904-2.885-2.904zm0 1.936a.95.95 0 0 1 .962.968.95.95 0 0 1-.962.967.95.95 0 0 1-.961-.967.95.95 0 0 1 .961-.968zm-.991 5.806a.957.957 0 0 0-.666.319.97.97 0 0 0-.155 1.065.968.968 0 0 0 .918.552h.894v8.437c-.017.02-.005 0-.03.02-.194.096-.555.209-.909.332-3.85 1.281-7.007 3.768-9.194 6.906a14.31 14.31 0 0 0-2.366-.211C6.469 30.968 0 37.478 0 45.484 0 53.489 6.469 60 14.423 60c3.011 0 5.809-.938 8.124-2.533C25.259 59.06 28.387 60 31.719 60c8.953 0 16.605-6.516 18.043-15.386 1.438-8.87-3.76-17.494-12.255-20.333h-.057a4.12 4.12 0 0 1-.804-.33c-.06-.034-.07-.048-.109-.075v-8.392h.947a.957.957 0 0 0 .9-.594.973.973 0 0 0-.528-1.272.957.957 0 0 0-.372-.07H26.028a.935.935 0 0 0-.097 0zm2.914 1.936h5.77v8.668c0 .49.245.81.45 1.017.205.207.419.346.635.469.432.245.878.413 1.254.514l-.056-.02c7.615 2.546 12.25 10.236 10.963 18.18-1.287 7.943-8.115 13.764-16.142 13.764-2.713 0-5.223-.78-7.49-1.981a14.5 14.5 0 0 0 4.609-10.49c0-.035.007-.068.007-.102 0-.036-.003-.07-.003-.106a14.342 14.342 0 0 0-.06-1.202c-.023-.25-.06-.495-.094-.741-.017-.117-.033-.233-.053-.348-.88-5.342-4.655-9.704-9.653-11.386 1.922-2.489 4.439-4.538 7.602-5.591h.015c.274-.095.709-.211 1.153-.435.223-.112.455-.25.676-.491.221-.264.417-.654.417-1.066v-8.653zM12.5 17.419c-.255 0-.5.102-.68.284a.97.97 0 0 0 .68 1.652c.255 0 .5-.102.68-.284a.97.97 0 0 0-.68-1.652zm-3.846 2.904c-.255 0-.5.101-.68.283a.971.971 0 0 0 0 1.369.958.958 0 0 0 1.36 0 .97.97 0 0 0 0-1.369.958.958 0 0 0-.68-.283zm7.692 0c-.255 0-.5.101-.68.283a.971.971 0 0 0 0 1.369.958.958 0 0 0 1.36 0 .971.971 0 0 0 0-1.369.958.958 0 0 0-.68-.283zm-7.692 3.87c-.255 0-.5.102-.68.284a.97.97 0 0 0 0 1.369.958.958 0 0 0 1.36 0 .97.97 0 0 0 0-1.369.958.958 0 0 0-.68-.284zm7.692 0c-.255 0-.5.102-.68.284a.971.971 0 0 0 0 1.369.958.958 0 0 0 1.36 0 .971.971 0 0 0 0-1.369.958.958 0 0 0-.68-.284zM12.5 27.098c-.255 0-.5.102-.68.283a.97.97 0 0 0 .68 1.652c.255 0 .5-.102.68-.283a.97.97 0 0 0-.68-1.652zm1.923 5.806c.806 0 1.594.08 2.358.227l.24.053a12.51 12.51 0 0 1 2.085.639 12.42 12.42 0 0 1 1.953 1.01 12.45 12.45 0 0 1 1.724 1.307c.486.44.942.912 1.352 1.421l.004.004.008.012c.426.53.805 1.098 1.142 1.693.006.012.015.022.022.034l.008.015a12.629 12.629 0 0 1 .89 2c.213.611.385 1.242.503 1.89.015.084.024.17.038.253.106.661.172 1.335.172 2.023 0 .474-.03.944-.082 1.41-.01.093-.03.183-.042.276a12.62 12.62 0 0 1-.206 1.153c-.015.065-.033.128-.049.193-.101.407-.22.809-.36 1.202l-.05.132c-.159.43-.336.853-.54 1.263a12.565 12.565 0 0 1-3.696 4.438l-.515.385a12.396 12.396 0 0 1-6.96 2.129c-6.914 0-12.499-5.621-12.499-12.581 0-6.96 5.585-12.58 12.5-12.58z"/><path id="path1_fill" d="M14.502 45.5V36C19.747 36 24 40.253 24 45.5h-9.498zm-7.145-5.041a.792.792 0 1 1-.792 1.371.792.792 0 0 1 .792-1.371zm14.29 10.08a.791.791 0 1 1 .79-1.372.791.791 0 0 1-.79 1.371zM10.833 37.561a.792.792 0 1 1-1.371.792.792.792 0 0 1 1.371-.792zm7.337 15.875a.792.792 0 1 1 1.37-.793.792.792 0 0 1-1.37.793zm-3.668-.022A.792.792 0 1 1 14.5 55a.792.792 0 0 1 0-1.584zm-3.958-1.06a.792.792 0 1 1-.794 1.37.792.792 0 0 1 .794-1.37zm-2.897-2.898a.792.792 0 1 1-1.373.791.792.792 0 0 1 1.373-.79zM6.587 45.5a.792.792 0 1 1-1.585-.001.792.792 0 0 1 1.584.001z"/></defs></svg>