<svg width="60" height="60" xmlns="http://www.w3.org/2000/svg" xmlns:xlink="http://www.w3.org/1999/xlink"><g opacity=".9"><use xlink:href="#path0_fill" fill="url(#paint0_linear)"/><use xlink:href="#path1_fill" fill="url(#paint1_linear)"/><use xlink:href="#path2_fill" fill="url(#paint2_linear)"/><use xlink:href="#path3_fill" fill="url(#paint3_linear)"/><use xlink:href="#path4_fill" fill="url(#paint4_linear)"/><use xlink:href="#path5_fill" fill="url(#paint5_linear)"/><use xlink:href="#path6_fill" fill="url(#paint6_linear)"/><use xlink:href="#path7_fill" fill="url(#paint7_linear)"/><use xlink:href="#path8_fill" fill="url(#paint8_linear)"/><use xlink:href="#path9_fill" fill="url(#paint9_linear)"/><use xlink:href="#path10_fill" fill="url(#paint10_linear)"/><use xlink:href="#path11_fill" fill="url(#paint11_linear)"/><use xlink:href="#path12_fill" fill="url(#paint12_linear)"/></g><defs><linearGradient id="paint0_linear" x2="1" gradientUnits="userSpaceOnUse" gradientTransform="matrix(-24.9188 67.5638 -73.8488 -78.9114 91.843 26.785)"><stop offset="0" stop-color="#0054A6"/><stop offset="1" stop-color="#2E3192"/></linearGradient><linearGradient id="paint1_linear" x2="1" gradientUnits="userSpaceOnUse" gradientTransform="matrix(-24.9188 67.5638 -73.8488 -78.9114 91.843 26.785)"><stop offset="0" stop-color="#0054A6"/><stop offset="1" stop-color="#2E3192"/></linearGradient><linearGradient id="paint2_linear" x2="1" gradientUnits="userSpaceOnUse" gradientTransform="matrix(-24.9188 67.5638 -73.8488 -78.9114 91.843 26.785)"><stop offset="0" stop-color="#0054A6"/><stop offset="1" stop-color="#2E3192"/></linearGradient><linearGradient id="paint3_linear" x2="1" gradientUnits="userSpaceOnUse" gradientTransform="matrix(-24.9188 67.5638 -73.8488 -78.9114 91.843 26.785)"><stop offset="0" stop-color="#0054A6"/><stop offset="1" stop-color="#2E3192"/></linearGradient><linearGradient id="paint4_linear" x2="1" gradientUnits="userSpaceOnUse" gradientTransform="matrix(-24.9188 67.5638 -73.8488 -78.9114 91.843 26.785)"><stop offset="0" stop-color="#0054A6"/><stop offset="1" stop-color="#2E3192"/></linearGradient><linearGradient id="paint5_linear" x2="1" gradientUnits="userSpaceOnUse" gradientTransform="matrix(-24.9188 67.5638 -73.8488 -78.9114 91.843 26.785)"><stop offset="0" stop-color="#0054A6"/><stop offset="1" stop-color="#2E3192"/></linearGradient><linearGradient id="paint6_linear" x2="1" gradientUnits="userSpaceOnUse" gradientTransform="matrix(-24.9188 67.5638 -73.8488 -78.9114 91.843 26.785)"><stop offset="0" stop-color="#0054A6"/><stop offset="1" stop-color="#2E3192"/></linearGradient><linearGradient id="paint7_linear" x2="1" gradientUnits="userSpaceOnUse" gradientTransform="matrix(-24.9188 67.5638 -73.8488 -78.9114 91.843 26.785)"><stop offset="0" stop-color="#0054A6"/><stop offset="1" stop-color="#2E3192"/></linearGradient><linearGradient id="paint8_linear" x2="1" gradientUnits="userSpaceOnUse" gradientTransform="matrix(-24.9188 67.5638 -73.8488 -78.9114 91.843 26.785)"><stop offset="0" stop-color="#0054A6"/><stop offset="1" stop-color="#2E3192"/></linearGradient><linearGradient id="paint9_linear" x2="1" gradientUnits="userSpaceOnUse" gradientTransform="matrix(-24.9188 67.5638 -73.8488 -78.9114 91.843 26.785)"><stop offset="0" stop-color="#0054A6"/><stop offset="1" stop-color="#2E3192"/></linearGradient><linearGradient id="paint10_linear" x2="1" gradientUnits="userSpaceOnUse" gradientTransform="matrix(-24.9188 67.5638 -73.8488 -78.9114 91.843 26.785)"><stop offset="0" stop-color="#0054A6"/><stop offset="1" stop-color="#2E3192"/></linearGradient><linearGradient id="paint11_linear" x2="1" gradientUnits="userSpaceOnUse" gradientTransform="matrix(-24.9188 67.5638 -73.8488 -78.9114 91.843 26.785)"><stop offset="0" stop-color="#0054A6"/><stop offset="1" stop-color="#2E3192"/></linearGradient><linearGradient id="paint12_linear" x2="1" gradientUnits="userSpaceOnUse" gradientTransform="matrix(-24.9188 67.5638 -73.8488 -78.9114 91.843 26.785)"><stop offset="0" stop-color="#0054A6"/><stop offset="1" stop-color="#2E3192"/></linearGradient><path id="path0_fill" d="M0 53a1 1 0 1 0 2 0 1 1 0 0 0-2 0z"/><path id="path1_fill" d="M11 52H5a1 1 0 1 0 0 2h6a1 1 0 1 0 0-2z"/><path id="path2_fill" d="M11 56H1a1 1 0 1 0 0 2h10a1 1 0 1 0 0-2z"/><path id="path3_fill" d="M2 1a1 1 0 1 0 2 0 1 1 0 0 0-2 0z"/><path id="path4_fill" d="M13 0H7a1 1 0 0 0 0 2h6a1 1 0 1 0 0-2z"/><path id="path5_fill" d="M13 4H3a1 1 0 0 0 0 2h10a1 1 0 1 0 0-2z"/><path id="path6_fill" d="M50 2a1 1 0 1 0 2 0 1 1 0 0 0-2 0z"/><path id="path7_fill" d="M59 1h-4a1 1 0 1 0 0 2h4a1 1 0 1 0 0-2z"/><path id="path8_fill" d="M59 5h-8a1 1 0 1 0 0 2h8a1 1 0 1 0 0-2z"/><path id="path9_fill" d="M48 47a1 1 0 1 0 2 0 1 1 0 0 0-2 0z"/><path id="path10_fill" d="M59 46h-6a1 1 0 1 0 0 2h6a1 1 0 1 0 0-2z"/><path id="path11_fill" d="M59 50H49a1 1 0 1 0 0 2h10a1 1 0 1 0 0-2z"/><path id="path12_fill" d="M2 49a1 1 0 0 0 1 1h6a1 1 0 0 0 1-1v-6a1 1 0 0 0-1-1H7v-3.307l11.692-4.384A15.979 15.979 0 0 0 27 38.708V41h-1a1 1 0 0 0-1 1v17a1 1 0 0 0 1 1h8a1 1 0 0 0 1-1V42a1 1 0 0 0-1-1h-1v-2.292a16.033 16.033 0 0 0 12.414-11.476L53 28.813v7.329a4 4 0 1 0 2 0V28a1 1 0 0 0-.8-.979l-8.385-1.747a15.643 15.643 0 0 0-4.028-13.051l2.66-1.323A1 1 0 0 0 45 10V8h2a1 1 0 0 0 1-1V1a1 1 0 0 0-1-1h-6a1 1 0 0 0-1 1v6a1 1 0 0 0 1 1h2v1.382l-2.731 1.365a15.981 15.981 0 0 0-25.954 9.105L9 19.127v-3.269a4 4 0 1 0-2 0V20a1 1 0 0 0 .865.991l6.194.844c-.028.386-.059.772-.059 1.165a15.9 15.9 0 0 0 3.3 9.694L5.649 37.063A1 1 0 0 0 5 38v4H3a1 1 0 0 0-1 1v6zm54-9a2 2 0 1 1-4 0 2 2 0 0 1 4 0zM42 2h4v4h-4V2zM6 12a2 2 0 1 1 4 0 2 2 0 0 1-4 0zm27 46h-6V43h6v15zm-2-19v2h-2v-2h2zm-1-2a13.93 13.93 0 0 1-9.207-3.479l2.177-.821a11.968 11.968 0 0 0 18.53-6.283l1.958.408A14.015 14.015 0 0 1 30 37zM20 23c0-.119.014-.234.018-.352l6.03.822A3.986 3.986 0 0 0 29 26.858v1.449l-5.667 2.125A9.965 9.965 0 0 1 20 23zm19.944 1.05l-5.963-1.242A3.99 3.99 0 0 0 31 19.142v-1.524l5.079-2.54a9.98 9.98 0 0 1 3.865 8.972zM30 21a2 2 0 1 1 0 4 2 2 0 0 1 0-4zm.351 8.937A1 1 0 0 0 31 29v-2.142a3.994 3.994 0 0 0 2.571-2.093l5.965 1.243a9.991 9.991 0 0 1-14.226 5.819l5.041-1.89zm-.8-13.832A1 1 0 0 0 29 17v2.142a4.001 4.001 0 0 0-2.7 2.345l-6.016-.821a9.973 9.973 0 0 1 13.756-6.8l-4.489 2.239zM16 23a14 14 0 1 1 27.861 1.866l-1.961-.408a12 12 0 1 0-20.633 6.748l-2.013.755A13.934 13.934 0 0 1 16 23zM4 44h4v4H4v-4z"/></defs></svg>