<svg id="Layer_1" width="85" height="74" data-name="Layer 1" xmlns="http://www.w3.org/2000/svg" viewBox="0 0 85 74"><defs><style>.cls-1{fill:#89bbe2}</style><linearGradient id="linear-gradient" x1="-51.4" y1="134.6" x2="-50.4" y2="134.6" gradientTransform="matrix(-35.3 83.33 104.62 97.32 -15827.84 -8840.95)" gradientUnits="userSpaceOnUse"><stop offset="0" stop-color="#0054a6"/><stop offset="1" stop-color="#2e3192"/></linearGradient></defs><g id="Canvas"><g id="Group"><g id="Group-2" data-name="Group"><g id="Vector"><path id="path0_fill" data-name="path0 fill" class="cls-1" d="M73.8 35l-9.73-5.57a6.25 6.25 0 0 0-5.68 0L48.65 35a2.56 2.56 0 0 0 0 4.71l9.74 5.57a6.25 6.25 0 0 0 5.68 0l9.73-5.58a2.56 2.56 0 0 0 0-4.71zm-1.27 2.52l-9.73 5.56a3.67 3.67 0 0 1-3.14 0l-9.73-5.57a1 1 0 0 1-.24-.16 1.18 1.18 0 0 1 .24-.17l9.73-5.57a3.67 3.67 0 0 1 3.14 0l9.73 5.57a1.18 1.18 0 0 1 .24.17 1.67 1.67 0 0 1-.24.16z"/></g><g id="Vector-2" data-name="Vector" opacity=".9"><path id="path2_fill" data-name="path2 fill" d="M82 32.87l-2.8-1.59A37 37 0 0 0 59.11 4 37.74 37.74 0 0 0 25 4.15 37 37 0 0 0 5.24 31.63l-2.17 1.24C1.09 34 0 35.6 0 37.35s1.09 3.36 3.07 4.47l2.28 1.3A37.07 37.07 0 0 0 25.24 70a37.71 37.71 0 0 0 33.63.17A37.09 37.09 0 0 0 79 43.47l2.89-1.68c2-1.13 3.08-2.72 3.08-4.47s-1.06-3.3-3-4.45zM42.23 2.59A35.1 35.1 0 0 1 64 10.2a34.44 34.44 0 0 1 12.2 19.42L49 14.05a14.37 14.37 0 0 0-13.08 0L8.13 30a34.5 34.5 0 0 1 12.16-19.69 35.07 35.07 0 0 1 21.94-7.72zm0 69a35 35 0 0 1-21.71-7.52A34.49 34.49 0 0 1 8.24 44.79L36 60.63a13.32 13.32 0 0 0 6.51 1.59 13.33 13.33 0 0 0 6.57-1.59l27-15.47a34.39 34.39 0 0 1-12.32 19 35.12 35.12 0 0 1-21.55 7.41zm38.46-32l-1.21.69-2.74 1.62-29 16.56a12 12 0 0 1-10.53 0L7.65 41.54 4.93 40l-.59-.39a2.88 2.88 0 0 1-1.79-2.25 3 3 0 0 1 1.79-2.28l.58-.33 2.73-1.55 29.6-17a11.09 11.09 0 0 1 5.24-1.2 11 11 0 0 1 5.27 1.22l29.05 16.65 2.71 1.56 1.17.66c1.14.65 1.8 1.48 1.8 2.28s-.66 1.61-1.8 2.23z" fill="url(#linear-gradient)"/></g><g id="Vector-3" data-name="Vector"><path id="path3_fill" data-name="path3 fill" class="cls-1" d="M55.1 45.93l-9.73-5.57a6.25 6.25 0 0 0-5.68 0L30 45.93a2.56 2.56 0 0 0 0 4.71l9.74 5.57a6.25 6.25 0 0 0 5.68 0l9.73-5.57a2.56 2.56 0 0 0 0-4.71zm-1.27 2.52L44.1 54a3.6 3.6 0 0 1-3.1 0l-9.73-5.56a1.46 1.46 0 0 1-.24-.17 1.18 1.18 0 0 1 .24-.17L41 42.55a3.67 3.67 0 0 1 3.14 0l9.73 5.57a1.77 1.77 0 0 1 .24.17l-.24.17z"/></g><g id="Vector-4" data-name="Vector"><path id="path4_fill" data-name="path4 fill" class="cls-1" d="M30 28.77l9.74 5.57a6.25 6.25 0 0 0 5.68 0l9.73-5.57a2.56 2.56 0 0 0 0-4.71l-9.73-5.57a6.25 6.25 0 0 0-5.68 0L30 24.06a2.56 2.56 0 0 0 0 4.71zm1.28-2.52L41 20.68a3.67 3.67 0 0 1 3.14 0l9.73 5.57a1.77 1.77 0 0 1 .24.17 1.67 1.67 0 0 1-.24.16l-9.77 5.57a3.67 3.67 0 0 1-3.14 0l-9.73-5.57a1 1 0 0 1-.24-.16 1.18 1.18 0 0 1 .24-.17z"/></g><g id="Vector-5" data-name="Vector"><path id="path5_fill" data-name="path5 fill" class="cls-1" d="M38 37.35A2.75 2.75 0 0 0 36.41 35l-9.73-5.57a6.27 6.27 0 0 0-5.69 0L11.25 35a2.56 2.56 0 0 0 0 4.71L21 45.27a6.27 6.27 0 0 0 5.69 0l9.73-5.57A2.75 2.75 0 0 0 38 37.35zm-2.82.16l-9.78 5.57a3.65 3.65 0 0 1-3.13 0l-9.73-5.57a1 1 0 0 1-.24-.16.81.81 0 0 1 .24-.17l9.73-5.57a3.65 3.65 0 0 1 3.13 0l9.73 5.57a.81.81 0 0 1 .24.17 1 1 0 0 1-.24.16z"/></g></g></g></g></svg>