<svg width="90" height="75" xmlns="http://www.w3.org/2000/svg" xmlns:xlink="http://www.w3.org/1999/xlink"><use xlink:href="#path0_fill" transform="translate(8.6)" fill="url(#paint0_linear)" opacity=".9"/><use xlink:href="#path1_fill" transform="translate(6.9 60.38)" fill="#89BBE2"/><use xlink:href="#path2_fill" transform="translate(0 36.48)" fill="#89BBE2"/><defs><linearGradient id="paint0_linear" x2="1" gradientUnits="userSpaceOnUse" gradientTransform="matrix(-33.7945 59.3261 -100.153 -69.2902 124.556 23.52)"><stop offset="0" stop-color="#0054A6"/><stop offset="1" stop-color="#2E3192"/></linearGradient><path id="path0_fill" fill-rule="evenodd" d="M79.856 10.41L42.434.2c-.97-.266-2.524-.266-3.489 0L1.515 10.41C.196 10.77 0 11.57 0 12.016c0 .445.195 1.246 1.516 1.605l12.293 3.352V36.75c0 1.172.925 2.12 2.105 2.156 11.649.348 20.77 7.77 23.29 10.04.425.382.952.57 1.483.57.532 0 1.063-.192 1.489-.57 2.52-2.27 11.636-9.692 23.285-10.04a2.155 2.155 0 0 0 2.105-2.156l-.004-19.777 3.33-.908v21.09c-.939.407-1.663 1.296-1.663 2.67 0 1.343.693 2.224 1.601 2.643-1.074 1.922-2.242 5.308-1.166 10.039.035.164.18.223.32.141 3.055-1.664 7.188-.613 8.809-.094.387.121.492-.02.266-.355-1.05-1.554-1.74-3.234-2.41-4.863-.768-1.864-1.508-3.66-2.723-5.123.681-.478 1.158-1.275 1.158-2.389 0-1.37-.723-2.26-1.66-2.668V15.374l6.428-1.753c1.32-.359 1.52-1.16 1.52-1.605.003-.446-.192-1.246-1.516-1.606zm-7.825 2.723l4.098-1.118-34.36-9.371c-.527-.14-1.632-.144-2.16 0L5.246 12.015l34.363 9.371c.528.145 1.63.145 2.16 0l22.99-6.27-19.86-1.51c-2.116 2.4-9.03 1.871-9.03-1.59 0-3.753 8.131-4.058 9.455-.916l26.707 2.033zM65.035 36.39c-12.043.496-21.433 7.914-24.351 10.492-2.914-2.582-12.309-10-24.352-10.492l.004-18.73 22.605 6.164c.48.133 1.106.203 1.743.203.64 0 1.265-.07 1.746-.203l22.603-6.164.002 18.73z"/><path id="path1_fill" d="M17.834 3.723L13.287.738c.09-.125-.3-.82-.555-.73L.322 4.442a.475.475 0 0 0-.32.492.485.485 0 0 0 .394.441l5.114.985-.668 2.757a.497.497 0 0 0 .191.516.493.493 0 0 0 .547.008l7.367-4.883-1.68 4.016a.485.485 0 1 0 .68.617l3.395-1.844 2.328 2.781a.482.482 0 0 0 .855-.289l.235-6.094c.015-.27-.848-.39-.926-.222z"/><path id="path2_fill" d="M53.477 28.038c-.27-2.38-1.566-4.352-3.644-5.551-.004 0-.004-.004-.008-.004L35.5 14.213s-.004 0-.004-.004L30.7 11.44 12.302.82C8.845-1.177 4.35.585 1.85 4.92c-2.742 4.75-2.406 9.367.82 11.233L40.2 37.828c.711.41 1.508.605 2.336.605 2.309 0 4.836-1.516 6.29-4.031 1.94-3.36 1.695-6.176-.653-7.531-1.945-1.125-4.027-.2-5.074 1.293-1.184 1.687-.93 3.773.613 5.082.492.414 1.23.351 1.645-.141a1.162 1.162 0 0 0-.141-1.645c-.898-.757-.445-1.617-.21-1.953.425-.605 1.23-1.058 1.995-.613 1.563.902.383 3.336-.199 4.344-1.46 2.523-4.04 3.383-5.438 2.574-2.269-1.312-1.699-5.043.032-8.05.941-1.633 2.238-2.84 3.648-3.403 1.274-.508 2.559-.453 3.617.16 1.461.844 2.297 2.117 2.489 3.793.187 1.668-.309 3.633-1.403 5.527-.32.559-.133 1.27.43 1.594.559.325 1.27.133 1.594-.43 1.37-2.363 1.957-4.769 1.707-6.964zm-30.223-2.696l-2.355-1.36c-2.27-1.312-1.7-5.038.035-8.046 1.336-2.313 3.39-3.746 5.367-3.746.68 0 1.32.172 1.899.504l1.925 1.113c-1.98.7-3.785 2.277-5.074 4.508-1.45 2.508-2.039 4.976-1.797 7.027zM3.867 6.084c1.836-3.18 4.961-4.57 7.266-3.242l12.859 7.426c-1.985.7-3.797 2.27-5.086 4.5-1.45 2.511-2.031 4.984-1.785 7.035L3.836 14.127c-2.274-1.308-1.703-5.039.031-8.043zm40.316 16.102c-1.894.754-3.601 2.32-4.804 4.402-1.45 2.512-2.032 4.985-1.786 7.036L27.034 27.53v-.004c-2.27-1.313-1.699-5.04.032-8.047 1.335-2.312 3.39-3.746 5.367-3.746.68 0 1.316.172 1.894.504l10.137 5.855c-.09.028-.187.055-.281.094z"/></defs></svg>