<svg width="52" height="72" xmlns="http://www.w3.org/2000/svg" xmlns:xlink="http://www.w3.org/1999/xlink"><use xlink:href="#path0_fill" fill="url(#paint0_linear)" opacity=".9"/><defs><linearGradient id="paint0_linear" x2="1" gradientUnits="userSpaceOnUse" gradientTransform="matrix(-21.5963 81.0766 -64.0023 -94.6937 79.597 32.143)"><stop offset="0" stop-color="#0054A6"/><stop offset="1" stop-color="#2E3192"/></linearGradient><path id="path0_fill" d="M47.047 49.78V37.116c2.848-.62 4.953-3.103 4.953-6.083 0-3.227-2.6-5.958-5.696-6.206l-14.113-9.435c-.372-2.73-2.229-4.841-4.83-5.338V1.241C27.362.497 26.868 0 26.125 0c-.743 0-1.238.497-1.238 1.241v8.814c-2.6.497-4.581 2.731-4.829 5.338L5.695 24.828C2.476 25.076 0 27.683 0 31.034c0 2.98 2.105 5.462 4.952 6.083V49.78C2.105 50.4 0 52.883 0 55.862c0 2.98 2.105 5.462 4.952 6.083v8.814c0 .745.496 1.241 1.238 1.241.743 0 1.239-.496 1.239-1.241v-8.814c2.847-.62 4.952-3.104 4.952-6.083 0-2.98-2.105-5.462-4.952-6.083V37.117c2.476-.496 4.333-2.359 4.828-4.841h12.505v18.62c0 3.476 2.724 6.207 6.19 6.207h8.79c.62 2.856 3.096 4.966 6.068 4.966 3.466 0 6.19-2.731 6.19-6.207 0-2.98-2.105-5.462-4.952-6.083zm2.477-18.745c0 2.11-1.61 3.724-3.715 3.724-2.105 0-3.714-1.614-3.714-3.724 0-2.11 1.61-3.724 3.714-3.724 2.105 0 3.715 1.613 3.715 3.724zm-37.267-1.242c-.371-1.862-1.61-3.351-3.095-4.22l11.019-7.449c.866 2.483 3.095 4.221 5.819 4.221 2.724 0 4.952-1.738 5.819-4.096l11.019 7.448c-1.61.869-2.724 2.358-3.096 4.22H12.256l.001-.124zM26 12.414c2.105 0 3.714 1.614 3.714 3.724 0 2.11-1.61 3.724-3.714 3.724-2.105 0-3.714-1.613-3.714-3.724 0-2.11 1.61-3.724 3.714-3.724zM9.905 55.862c0 2.11-1.61 3.724-3.714 3.724-2.105 0-3.714-1.613-3.714-3.724 0-2.11 1.61-3.724 3.714-3.724 2.105 0 3.714 1.614 3.714 3.724zM6.191 34.76c-2.105 0-3.714-1.614-3.714-3.725 0-2.11 1.61-3.724 3.714-3.724 2.105 0 3.714 1.614 3.714 3.724 0 2.11-1.61 3.725-3.714 3.725zm21.047 16.137V32.276h12.505c.495 2.483 2.352 4.345 4.828 4.841V49.78c-2.476.496-4.333 2.358-4.828 4.841h-8.79c-2.106 0-3.715-1.614-3.715-3.724zm18.572 8.69c-2.105 0-3.714-1.614-3.714-3.724 0-2.11 1.61-3.724 3.714-3.724 2.105 0 3.714 1.613 3.714 3.724 0 2.11-1.61 3.724-3.714 3.724z"/></defs></svg>