<svg width="74" height="73" xmlns="http://www.w3.org/2000/svg" xmlns:xlink="http://www.w3.org/1999/xlink"><use xlink:href="#path0_fill" transform="translate(0 52.65)" fill="#89BBE2"/><use xlink:href="#path1_fill" transform="translate(8.4)" fill="url(#paint1_linear)" opacity=".9"/><defs><linearGradient id="paint1_linear" x2="1" gradientUnits="userSpaceOnUse" gradientTransform="matrix(-23.7373 69.7746 -70.3476 -81.4935 87.489 27.662)"><stop offset="0" stop-color="#0054A6"/><stop offset="1" stop-color="#2E3192"/></linearGradient><path id="path0_fill" d="M65.624.088a1.233 1.233 0 0 0-1.547.568 1.242 1.242 0 0 0 .384 1.606c.782.548 1.23 1.102 1.23 1.521 0 2.553-11.174 6.26-28.694 6.26-17.518 0-28.692-3.71-28.692-6.26 0-.417.45-.97 1.235-1.521A1.242 1.242 0 0 0 8.374.088C2.895 2.248 0 5.004 0 8.056c0 7.985 19.06 12.298 36.994 12.298C54.932 20.354 74 16.046 74 8.056c.003-3.043-2.895-5.8-8.377-7.968zM37 17.862c-20.339 0-34.512-5.17-34.512-9.81 0-1.305 1.189-2.695 3.351-3.995.497 5.564 15.92 8.472 31.164 8.472 15.237 0 30.654-2.906 31.16-8.47 2.171 1.3 3.357 2.69 3.357 3.993-.003 4.643-14.18 9.81-34.52 9.81z"/><path id="path1_fill" d="M3.023 39.736v16.527c0 .688.558 1.244 1.241 1.244h4.52c.61 0 1.13-.448 1.227-1.057l.433-2.854.436 2.856a1.242 1.242 0 0 0 1.226 1.055h4.151a1.242 1.242 0 0 0 1.241-1.244l-.005-16.512c.279-.187.523-.414.773-.639.509.61 1.075 1.172 1.761 1.618v19.989c0 .688.558 1.244 1.241 1.244h5.43c.61 0 1.131-.449 1.227-1.055l.77-5.05.77 5.05a1.242 1.242 0 0 0 1.227 1.055h4.982a1.242 1.242 0 0 0 1.242-1.244l-.003-19.97c.73-.468 1.328-1.072 1.857-1.73.28.265.567.519.887.734l-.006 16.513a1.242 1.242 0 0 0 1.241 1.244h4.15c.611 0 1.132-.449 1.228-1.058l.433-2.853.436 2.856a1.242 1.242 0 0 0 1.226 1.055h4.52c.686 0 1.242-.556 1.242-1.244V39.739a6.844 6.844 0 0 0 3.025-5.683l.003-8.821c0-3.59-2.781-6.51-6.29-6.793 1.8-1.3 2.98-3.404 2.98-5.788 0-3.943-3.2-7.146-7.13-7.146-3.934 0-7.131 3.206-7.131 7.146 0 2.407 1.2 4.526 3.023 5.823a6.736 6.736 0 0 0-3.038 1.148c-1.302-2.37-3.74-4.022-6.592-4.147a8.344 8.344 0 0 0 4.032-7.14c0-4.599-3.73-8.338-8.317-8.338-4.59 0-8.33 3.739-8.33 8.338a8.348 8.348 0 0 0 4.017 7.134h-.035c-2.968 0-5.529 1.658-6.898 4.074a6.705 6.705 0 0 0-2.9-1.066c1.822-1.297 3.022-3.419 3.022-5.823 0-3.943-3.2-7.146-7.13-7.146-3.936 0-7.133 3.206-7.133 7.146 0 2.384 1.183 4.488 2.98 5.788C2.775 18.727 0 21.65 0 25.235v8.818a6.83 6.83 0 0 0 3.023 5.683zm43.682-31.74c2.564 0 4.648 2.093 4.648 4.664 0 2.57-2.084 4.663-4.648 4.663-2.563 0-4.647-2.093-4.647-4.663 0-2.574 2.084-4.663 4.648-4.663zm-3.275 12.88h6.88a4.36 4.36 0 0 1 4.351 4.362v8.818c0 1.63-.9 3.116-2.357 3.876a1.244 1.244 0 0 0-.669 1.102v15.991H49.42l-1.5-9.853c-.188-1.215-2.264-1.215-2.453 0l-1.497 9.85h-1.846l.006-15.979c0-.466-.261-.892-.677-1.107-.558-.286-1.023-.715-1.413-1.21.311-.854.526-1.745.526-2.69l.003-10.587c0-.458-.055-.9-.13-1.338.81-.775 1.871-1.235 2.99-1.235zM22.847 8.337c0-3.226 2.616-5.849 5.834-5.849 3.215 0 5.83 2.623 5.83 5.849s-2.615 5.849-5.83 5.849c-3.218.003-5.834-2.623-5.834-5.85zm1.5 9.62h8.266c3.02 0 5.477 2.463 5.477 5.494v10.59a5.496 5.496 0 0 1-2.991 4.89 1.244 1.244 0 0 0-.672 1.105l.003 19.441h-2.677l-1.834-12.045c-.19-1.215-2.265-1.215-2.454 0l-1.834 12.045H22.51V40.022c0-.463-.258-.888-.668-1.101a5.5 5.5 0 0 1-2.965-4.879L18.87 23.45c.003-3.028 2.46-5.49 5.477-5.49zM10.438 7.997c2.564 0 4.648 2.092 4.648 4.663 0 2.57-2.084 4.663-4.648 4.663-2.563 0-4.65-2.093-4.65-4.663a4.661 4.661 0 0 1 4.65-4.663zM2.48 25.235c0-2.408 1.95-4.363 4.345-4.363h6.884c1.049 0 2.043.402 2.83 1.087-.09.486-.148.979-.148 1.489v10.59c0 .994.239 1.938.585 2.836-.37.425-.788.804-1.29 1.064a1.248 1.248 0 0 0-.678 1.107l.006 15.98-1.84-.004-1.5-9.853c-.19-1.215-2.265-1.215-2.453 0l-1.497 9.85H5.506v-15.99c0-.464-.259-.89-.669-1.102A4.366 4.366 0 0 1 2.48 34.05v-8.815z"/></defs></svg>