<svg width="99" height="83" xmlns="http://www.w3.org/2000/svg" xmlns:xlink="http://www.w3.org/1999/xlink"><use xlink:href="#path0_fill" transform="translate(13.2 40.38)" fill="#89BBE2"/><use xlink:href="#path1_fill" fill="url(#paint1_linear)" opacity=".9"/><defs><linearGradient id="paint1_linear" x2="1" gradientUnits="userSpaceOnUse" gradientTransform="matrix(-40.2365 92.5957 -119.244 -108.147 148.3 36.71)"><stop offset="0" stop-color="#0054A6"/><stop offset="1" stop-color="#2E3192"/></linearGradient><path id="path0_fill" fill-rule="evenodd" d="M10.938 8.691a1.38 1.38 0 0 1-1.368 1.368H1.367A1.379 1.379 0 0 1 0 8.69V1.367C0 .621.621 0 1.367 0H9.57c.746 0 1.367.621 1.367 1.367v7.324zM8.203 7.324v-4.59H2.734v4.59h5.47zm2.735 14.185a1.38 1.38 0 0 1-1.368 1.367H1.367A1.379 1.379 0 0 1 0 21.509v-7.325c0-.746.621-1.367 1.367-1.367H9.57c.746 0 1.367.621 1.367 1.367v7.325zM8.203 20.14v-4.59H2.734v4.59h5.47zM9.57 35.69c.746 0 1.367-.62 1.367-1.367V27c0-.746-.62-1.367-1.367-1.367H1.367C.621 25.633 0 26.254 0 27v7.325c0 .746.621 1.367 1.367 1.367H9.57zm-1.367-7.324v4.59H2.734v-4.59h5.47zm26.465-6.858c0 .746-.621 1.367-1.367 1.367h-8.203a1.379 1.379 0 0 1-1.367-1.367v-7.325c0-.746.62-1.367 1.367-1.367H33.3c.746 0 1.367.621 1.367 1.367v7.325zm-2.734-1.368v-4.59h-5.47v4.59h5.47zm15.82 2.735c.746 0 1.367-.621 1.367-1.367v-7.325c0-.746-.621-1.367-1.367-1.367H39.55c-.746 0-1.367.621-1.367 1.367v7.325c0 .746.62 1.367 1.367 1.367h8.203zm-1.367-7.325v4.59h-5.469v-4.59h5.469zM34.668 8.69a1.38 1.38 0 0 1-1.367 1.368h-8.203A1.379 1.379 0 0 1 23.73 8.69V1.367C23.73.621 24.35 0 25.098 0H33.3c.746 0 1.367.621 1.367 1.367v7.324zm-2.734-1.367v-4.59h-5.47v4.59h5.47zm15.82 2.735c.746 0 1.367-.621 1.367-1.368V1.367C49.121.621 48.5 0 47.754 0H39.55c-.746 0-1.367.621-1.367 1.367v7.324c0 .746.62 1.368 1.367 1.368h8.203zm-1.367-7.325v4.59h-5.469v-4.59h5.469zM72.559 21.51c0 .746-.621 1.367-1.368 1.367h-8.203a1.379 1.379 0 0 1-1.367-1.367v-7.325c0-.746.621-1.367 1.367-1.367h8.203a1.38 1.38 0 0 1 1.368 1.367v7.325zm-2.735-1.368v-4.59h-5.468v4.59h5.468zm1.367-10.082a1.38 1.38 0 0 0 1.368-1.368V1.367A1.38 1.38 0 0 0 71.19 0h-8.203c-.746 0-1.367.621-1.367 1.367v7.324a1.38 1.38 0 0 0 1.367 1.368h8.203zm-1.367-7.325v4.59h-5.468v-4.59h5.468zm2.735 31.59a1.38 1.38 0 0 1-1.368 1.368h-8.203a1.379 1.379 0 0 1-1.367-1.367V27c0-.746.621-1.367 1.367-1.367h8.203A1.38 1.38 0 0 1 72.559 27v7.325zm-2.735-1.367v-4.59h-5.468v4.59h5.468z"/><path id="path1_fill" fill-rule="evenodd" d="M58.984 6.836c0 .746-.62 1.367-1.367 1.367h-6.699v2.561l.084.047.37.201 3.019 1.539 1.707.877 6.64 3.373 5.897 3.01.082.041.04.02 4.497 2.288c.664.34.852 1.258.492 1.872-.394.671-1.207.831-1.871.492l-2.441-1.244v4.65h24.119c.61 0 1.156.418 1.32 1.004l1.953 7.03c.135.486.016.892-.232 1.184-.252.33-.649.547-1.088.547h-1.561v41.798h3.32c.747 0 1.368.625 1.368 1.367 0 .746-.621 1.367-1.367 1.367h-4.637l-.05.001h-24.45l-.063.002H31.055l-.063-.002H6.445l-.103-.004-.092.003H1.367A1.379 1.379 0 0 1 0 80.86c0-.746.621-1.367 1.367-1.367h3.711V37.695H3.516c-.891 0-1.559-.875-1.32-1.73l1.952-7.031a1.384 1.384 0 0 1 1.32-1.004h24.219v-4.69l-2.53 1.284c-.665.336-1.477.18-1.872-.492-.36-.614-.172-1.536.496-1.872l4.582-2.322.918-.465 5.051-2.568 8.367-4.25 1.508-.764 1.527-.775.354-.194.096-.054V1.367c0-.746.62-1.367 1.367-1.367h8.066c.746 0 1.367.621 1.367 1.367v5.469zM56.25 5.469h-5.332V2.734h5.332V5.47zm13.184 29.493v-4.298h23.082l1.193 4.297H69.434zm-2.735-6.646v.909l-.002.072.002 7.032v43.166h-4.343V67.383a1.38 1.38 0 0 0-1.368-1.367H38.332c-.746 0-1.367.621-1.367 1.367v12.112h-4.543V21.854l5.207-2.643 6.809-3.46 5.11-2.594 11.971 6.095 5.18 2.638v6.426zm-27 40.434h8.692v10.743h-1.25l-7.442.002V68.75zm11.426 0v10.743l8.496.002V68.75h-8.496zM29.687 30.664H6.51l-1.194 4.297h24.372v-4.297zm0 48.345v.485H7.814V37.696h21.874v41.313zm61.524.485V37.696H69.434v41.798H91.21zM53.586 30.617c.547-.867.781-1.691.793-2.656a7.86 7.86 0 0 0-.026-.574l-.035-.214-.005-.044-.055-.258a5.75 5.75 0 0 0-.184-.625l-.058-.156-.051-.114a6.008 6.008 0 0 0-.305-.562l-.031-.05-.18-.27-.078-.104a5.913 5.913 0 0 0-.727-.748c-.017-.01-.288-.218-.17-.136l-.158-.11a6.57 6.57 0 0 0-.89-.5l-.032-.012-.042-.015a6.087 6.087 0 0 0-1.09-.297l-.082-.015-.082-.005-.27-.015a6.587 6.587 0 0 0-.68.007l-.168.01-.101.014-.031.008a5.69 5.69 0 0 0-.891.222c-.094.03-.188.062-.281.1.037-.014-.049.026-.125.061l-.098.046a6.21 6.21 0 0 0-.66.387c-.016.012-.348.262-.133.086-.097.078-.195.16-.289.246-.766.703-1.21 1.375-1.46 2.289l-.009.031c-.045.161-.087.32-.117.48l-.004.032-.004.033c-.015.116-.045.325-.023.1-.027.27-.043.543-.035.812l.008.135.015.272.01.108.01.056a5.789 5.789 0 0 0 .326 1.171l.06.126.047.097c.117.227.242.45.387.66.012.016.262.348.086.133a6.322 6.322 0 0 0 .789.82l.143.122.08.058c.105.074.21.145.32.211.191.113.389.225.592.32l.22.086.02.008a5.826 5.826 0 0 0 1.145.29c-.176-.026-.02-.012.129 0l.175.015c.137.004.274.008.41.004l.135-.007.272-.017.115-.01.049-.01c.258-.046.515-.1.765-.183l.045-.014c.108-.034.217-.07.322-.11l.04-.012.109-.055a6.62 6.62 0 0 0 .773-.446c.016-.011.348-.261.133-.085.098-.079.196-.16.29-.247.187-.172.367-.347.53-.543l.034-.043.013-.017.016-.02c.066-.088.15-.198.04-.04l.038-.055.018-.024c.054-.079.11-.156.158-.238zm3.527-2.716c-.045-2.518-1.281-4.74-3.316-6.202-1.957-1.406-4.711-1.684-6.938-.809-2.3.903-4.054 2.84-4.664 5.247-.625 2.472.11 5.058 1.782 6.945 2.007 2.265 5.457 3.047 8.261 1.949a7.678 7.678 0 0 0 4.875-7.018V27.9zm-8.976-2.287v1.41l-.004.285c-.012.582-.026 1.18.418 1.629l1.96 2.012c1.235 1.265 3.165-.672 1.934-1.934l-1.57-1.61V25.61c0-.746-.621-1.367-1.367-1.367a1.386 1.386 0 0 0-1.371 1.37zm6.668 47.214v2.637c0 .746-.621 1.367-1.367 1.367a1.379 1.379 0 0 1-1.368-1.367v-2.637c0-.746.621-1.367 1.367-1.367.747 0 1.368.621 1.368 1.367zm-7.422 2.637v-2.637c0-.746-.621-1.367-1.367-1.367s-1.368.621-1.368 1.367v2.637c0 .746.621 1.367 1.368 1.367.746 0 1.367-.621 1.367-1.367z"/></defs></svg>