<svg xmlns="http://www.w3.org/2000/svg" viewBox="0 0 1033 895"><defs><style>.cls-1{fill:#fff}.cls-2{fill:#f5f8fa}.cls-5{fill:#2e3192}</style><mask id="mask" x="177.1" y="137.43" width="679.76" height="680.49" maskUnits="userSpaceOnUse"><g id="mask0_outline_ins" data-name="mask0 outline ins"><path id="path1_fill" data-name="path1 fill" class="cls-1" d="M853.86 477.68C853.86 663.93 703 814.92 517 814.92S180.1 663.93 180.1 477.68 330.93 140.43 517 140.43s336.86 150.99 336.86 337.25z"/></g></mask><mask id="mask-2" x="358" y="343" width="12" height="12" maskUnits="userSpaceOnUse"><g id="mask1_outline_ins" data-name="mask1 outline ins"><path id="path3_fill" data-name="path3 fill" class="cls-1" d="M369 349a5 5 0 1 1-5-5 5 5 0 0 1 5 5z"/></g></mask><mask id="mask-3" x="664" y="343" width="12" height="12" maskUnits="userSpaceOnUse"><g id="mask2_outline_ins" data-name="mask2 outline ins"><path id="path3_fill-2" data-name="path3 fill" class="cls-1" d="M675 349a5 5 0 1 1-5-5 5 5 0 0 1 5 5z"/></g></mask><mask id="mask-4" x="315" y="490" width="12" height="12" maskUnits="userSpaceOnUse"><g id="mask3_outline_ins" data-name="mask3 outline ins"><path id="path3_fill-3" data-name="path3 fill" class="cls-1" d="M326 496a5 5 0 1 1-5-5 5 5 0 0 1 5 5z"/></g></mask><mask id="mask-5" x="707" y="490" width="12" height="12" maskUnits="userSpaceOnUse"><g id="mask4_outline_ins" data-name="mask4 outline ins"><path id="path3_fill-4" data-name="path3 fill" class="cls-1" d="M718 496a5 5 0 1 1-5-5 5 5 0 0 1 5 5z"/></g></mask><mask id="mask-6" x="621" y="633" width="12" height="12" maskUnits="userSpaceOnUse"><g id="mask5_outline_ins" data-name="mask5 outline ins"><path id="path3_fill-5" data-name="path3 fill" class="cls-1" d="M632 639a5 5 0 1 1-5-5 5 5 0 0 1 5 5z"/></g></mask><mask id="mask-7" x="401" y="633" width="12" height="12" maskUnits="userSpaceOnUse"><g id="mask6_outline_ins" data-name="mask6 outline ins"><path id="path3_fill-6" data-name="path3 fill" class="cls-1" d="M412 639a5 5 0 1 1-5-5 5 5 0 0 1 5 5z"/></g></mask><mask id="mask-8" x="511" y="270" width="12" height="12" maskUnits="userSpaceOnUse"><g id="mask7_outline_ins" data-name="mask7 outline ins"><path id="path3_fill-7" data-name="path3 fill" class="cls-1" d="M522 276a5 5 0 1 1-5-5 5 5 0 0 1 5 5z"/></g></mask><mask id="mask-9" x="606" y="0" width="12" height="12" maskUnits="userSpaceOnUse"><g id="mask10_outline_ins" data-name="mask10 outline ins"><path id="path3_fill-8" data-name="path3 fill" class="cls-1" d="M617 6a5 5 0 1 1-5-5 5 5 0 0 1 5 5z"/></g></mask><mask id="mask-10" x="1021" y="495" width="12" height="12" maskUnits="userSpaceOnUse"><g id="mask13_outline_ins" data-name="mask13 outline ins"><path id="path3_fill-9" data-name="path3 fill" class="cls-1" d="M1032 501a5 5 0 1 1-5-5 5 5 0 0 1 5 5z"/></g></mask><mask id="mask-11" x="981" y="219" width="12" height="12" maskUnits="userSpaceOnUse"><g id="mask16_outline_ins" data-name="mask16 outline ins"><path id="path3_fill-10" data-name="path3 fill" class="cls-1" d="M992 225a5 5 0 1 1-5-5 5 5 0 0 1 5 5z"/></g></mask><mask id="mask-12" x="890" y="790" width="12" height="12" maskUnits="userSpaceOnUse"><g id="mask19_outline_ins" data-name="mask19 outline ins"><path id="path3_fill-11" data-name="path3 fill" class="cls-1" d="M901 796a5 5 0 1 1-5-5 5 5 0 0 1 5 5z"/></g></mask><mask id="mask-13" x="225" y="883" width="12" height="12" maskUnits="userSpaceOnUse"><g id="mask22_outline_ins" data-name="mask22 outline ins"><path id="path3_fill-12" data-name="path3 fill" class="cls-1" d="M236 889a5 5 0 1 1-5-5 5 5 0 0 1 5 5z"/></g></mask><mask id="mask-14" x="0" y="468" width="12" height="12" maskUnits="userSpaceOnUse"><g id="mask25_outline_ins" data-name="mask25 outline ins"><path id="path3_fill-13" data-name="path3 fill" class="cls-1" d="M11 474a5 5 0 1 1-5-5 5 5 0 0 1 5 5z"/></g></mask><mask id="mask-15" x="44" y="196" width="12" height="12" maskUnits="userSpaceOnUse"><g id="mask28_outline_ins" data-name="mask28 outline ins"><path id="path3_fill-14" data-name="path3 fill" class="cls-1" d="M55 202a5 5 0 1 1-5-5 5 5 0 0 1 5 5z"/></g></mask></defs><g id="Layer_2" data-name="Layer 2"><g id="Layer_1-2" data-name="Layer 1"><g id="Ellipse"><path id="path0_fill" data-name="path0 fill" class="cls-2" d="M715 474c0 109.35-88.65 198-198 198s-198-88.65-198-198 88.65-198 198-198 198 88.65 198 198z"/></g><g mask="url(#mask)" id="Ellipse-2" data-name="Ellipse"><path id="path2_stroke_2x" data-name="path2 stroke 2x" class="cls-2" d="M850.86 477.68c0 184.6-149.49 334.24-333.88 334.24v6c187.71 0 339.88-152.33 339.88-340.24zM517 811.92c-184.39 0-333.88-149.64-333.88-334.24h-6c0 187.91 152.17 340.24 339.88 340.24zM183.1 477.68c0-184.61 149.49-334.25 333.88-334.25v-6c-187.71 0-339.88 152.34-339.88 340.25zM517 143.43c184.39 0 333.88 149.64 333.88 334.25h6c0-187.91-152.17-340.25-339.88-340.25z"/></g><g id="Ellipse_2.7" data-name="Ellipse 2.7"><path id="path3_fill-15" data-name="path3 fill" class="cls-1" d="M369 349a5 5 0 1 1-5-5 5 5 0 0 1 5 5z"/><g mask="url(#mask-2)"><path id="path4_stroke_2x" data-name="path4 stroke 2x" class="cls-5" d="M368 349a4 4 0 0 1-4 4v2a6 6 0 0 0 6-6zm-4 4a4 4 0 0 1-4-4h-2a6 6 0 0 0 6 6zm-4-4a4 4 0 0 1 4-4v-2a6 6 0 0 0-6 6zm4-4a4 4 0 0 1 4 4h2a6 6 0 0 0-6-6z"/></g></g><g id="Ellipse_2.9" data-name="Ellipse 2.9"><path id="path3_fill-16" data-name="path3 fill" class="cls-1" d="M675 349a5 5 0 1 1-5-5 5 5 0 0 1 5 5z"/><g mask="url(#mask-3)"><path id="path4_stroke_2x-2" data-name="path4 stroke 2x" class="cls-5" d="M674 349a4 4 0 0 1-4 4v2a6 6 0 0 0 6-6zm-4 4a4 4 0 0 1-4-4h-2a6 6 0 0 0 6 6zm-4-4a4 4 0 0 1 4-4v-2a6 6 0 0 0-6 6zm4-4a4 4 0 0 1 4 4h2a6 6 0 0 0-6-6z"/></g></g><g id="Ellipse_2.11" data-name="Ellipse 2.11"><path id="path3_fill-17" data-name="path3 fill" class="cls-1" d="M326 496a5 5 0 1 1-5-5 5 5 0 0 1 5 5z"/><g mask="url(#mask-4)"><path id="path4_stroke_2x-3" data-name="path4 stroke 2x" class="cls-5" d="M325 496a4 4 0 0 1-4 4v2a6 6 0 0 0 6-6zm-4 4a4 4 0 0 1-4-4h-2a6 6 0 0 0 6 6zm-4-4a4 4 0 0 1 4-4v-2a6 6 0 0 0-6 6zm4-4a4 4 0 0 1 4 4h2a6 6 0 0 0-6-6z"/></g></g><g id="Ellipse_2.12" data-name="Ellipse 2.12"><path id="path3_fill-18" data-name="path3 fill" class="cls-1" d="M718 496a5 5 0 1 1-5-5 5 5 0 0 1 5 5z"/><g mask="url(#mask-5)"><path id="path4_stroke_2x-4" data-name="path4 stroke 2x" class="cls-5" d="M717 496a4 4 0 0 1-4 4v2a6 6 0 0 0 6-6zm-4 4a4 4 0 0 1-4-4h-2a6 6 0 0 0 6 6zm-4-4a4 4 0 0 1 4-4v-2a6 6 0 0 0-6 6zm4-4a4 4 0 0 1 4 4h2a6 6 0 0 0-6-6z"/></g></g><g id="Ellipse_2.13" data-name="Ellipse 2.13"><path id="path3_fill-19" data-name="path3 fill" class="cls-1" d="M632 639a5 5 0 1 1-5-5 5 5 0 0 1 5 5z"/><g mask="url(#mask-6)"><path id="path4_stroke_2x-5" data-name="path4 stroke 2x" class="cls-5" d="M631 639a4 4 0 0 1-4 4v2a6 6 0 0 0 6-6zm-4 4a4 4 0 0 1-4-4h-2a6 6 0 0 0 6 6zm-4-4a4 4 0 0 1 4-4v-2a6 6 0 0 0-6 6zm4-4a4 4 0 0 1 4 4h2a6 6 0 0 0-6-6z"/></g></g><g id="Ellipse_2.14" data-name="Ellipse 2.14"><path id="path3_fill-20" data-name="path3 fill" class="cls-1" d="M412 639a5 5 0 1 1-5-5 5 5 0 0 1 5 5z"/><g mask="url(#mask-7)"><path id="path4_stroke_2x-6" data-name="path4 stroke 2x" class="cls-5" d="M411 639a4 4 0 0 1-4 4v2a6 6 0 0 0 6-6zm-4 4a4 4 0 0 1-4-4h-2a6 6 0 0 0 6 6zm-4-4a4 4 0 0 1 4-4v-2a6 6 0 0 0-6 6zm4-4a4 4 0 0 1 4 4h2a6 6 0 0 0-6-6z"/></g></g><g id="Ellipse_2.8" data-name="Ellipse 2.8"><path id="path3_fill-21" data-name="path3 fill" class="cls-1" d="M522 276a5 5 0 1 1-5-5 5 5 0 0 1 5 5z"/><g mask="url(#mask-8)"><path id="path4_stroke_2x-7" data-name="path4 stroke 2x" class="cls-5" d="M521 276a4 4 0 0 1-4 4v2a6 6 0 0 0 6-6zm-4 4a4 4 0 0 1-4-4h-2a6 6 0 0 0 6 6zm-4-4a4 4 0 0 1 4-4v-2a6 6 0 0 0-6 6zm4-4a4 4 0 0 1 4 4h2a6 6 0 0 0-6-6z"/></g></g><g id="Vector"><path id="path12_stroke" data-name="path12 stroke" class="cls-5" d="M516.5 50a.5.5 0 0 0 1 0zm93-43.5a.5.5 0 0 0 0-1zm-92 43a.5.5 0 1 0-1 0zm-1-3.84a.5.5 0 0 0 1 0zm1-1a.5.5 0 0 0-1 0zm-1-3.84a.5.5 0 0 0 1 0zm1-1a.5.5 0 1 0-1 0zm-1-3.84a.5.5 0 1 0 1 0zm1-1a.5.5 0 0 0-1 0zm-1-3.84a.5.5 0 0 0 1 0zm1-1a.5.5 0 0 0-1 0zm-1-3.84a.5.5 0 1 0 1 0zm1-1a.5.5 0 0 0-.5-.3.49.49 0 0 0-.51.48zm-.45-4.28a.51.51 0 0 0 .37.61.5.5 0 0 0 .6-.37zm1.24-.75a.5.5 0 0 0-1-.28zm.68-4.24a.49.49 0 0 0 .2.67.49.49 0 0 0 .68-.2zm1.39-.41a.5.5 0 1 0-.85-.52zm1.76-3.92a.5.5 0 1 0 .73.69zm1.45 0a.5.5 0 0 0-.69-.73zm2.71-3.34a.5.5 0 1 0 .52.85zm1.4.34a.49.49 0 0 0 .2-.68.49.49 0 0 0-.67-.2zm3.49-2.52a.5.5 0 0 0 .28 1zm1.27.69a.5.5 0 0 0 .37-.6.51.51 0 0 0-.61-.37zm4-1.52A.49.49 0 0 0 536 6a.5.5 0 0 0 .51.49zm1 1a.5.5 0 0 0 0-1zm3.87-1a.5.5 0 0 0 0 1zm1 1a.5.5 0 0 0 0-1zm3.86-1a.5.5 0 0 0 0 1zm1 1a.5.5 0 0 0 0-1zm3.87-1a.5.5 0 0 0 0 1zm1 1a.5.5 0 0 0 0-1zm3.87-1a.5.5 0 0 0 0 1zm1 1a.5.5 0 0 0 0-1zm3.86-1a.5.5 0 0 0 0 1zm1 1a.5.5 0 0 0 0-1zm3.87-1a.5.5 0 0 0 0 1zm1 1a.5.5 0 0 0 0-1zm3.87-1a.5.5 0 0 0 0 1zm1 1a.5.5 0 0 0 0-1zm3.86-1a.5.5 0 0 0 0 1zm1 1a.5.5 0 0 0 0-1zm3.87-1a.5.5 0 0 0 0 1zm1 1a.5.5 0 0 0 0-1zm3.87-1a.5.5 0 0 0 0 1zm1 1a.5.5 0 0 0 0-1zm3.86-1a.5.5 0 0 0 0 1zm1 1a.5.5 0 0 0 0-1zm3.87-1a.5.5 0 0 0 0 1zm1 1a.5.5 0 0 0 0-1zm3.87-1a.5.5 0 0 0 0 1zm1 1a.5.5 0 0 0 0-1zm3.86-1a.5.5 0 0 0 0 1zm1 1a.5.5 0 0 0 0-1zm3.87-1a.5.5 0 0 0 0 1zM517.5 50v-.48h-1V50zm0-4.32v-1h-1v1zm0-4.8v-1h-1v1zm0-4.8v-1h-1v1zm0-4.8v-1h-1v1zm0-4.8V26h-1v.48zm0-.48v-.51h-1v.54zm.53-4.55q.12-.51.27-1l-1-.28c-.1.34-.19.68-.28 1zm1.83-4.76c.16-.3.33-.59.51-.88l-.85-.52q-.28.45-.54.93zm3-4.11q.35-.37.72-.72l-.69-.73-.76.76zm3.95-3.21c.29-.18.58-.35.88-.51l-.47-.86q-.48.25-.93.54zm4.65-2.07q.48-.15 1-.27l-.24-1-1 .28zm5-.79h.54v-1h-.54zm.51 0h.48v-1H537zm4.35 0h1v-1h-1zm4.83 0h1v-1h-1zm4.84 0h1v-1h-1zm4.83 0h1v-1h-1zm4.83 0h1v-1h-1zm4.84 0h1v-1h-1zm4.83 0h1v-1h-1zm4.83 0h1v-1h-1zm4.84 0h1v-1h-1zm4.83 0h1v-1h-1zm4.83 0h1v-1h-1zm4.84 0h1v-1h-1zm4.83 0h1v-1h-1zm4.83 0h1v-1h-1zm4.84 0h.48v-1H609z"/></g><g id="Ellipse_2" data-name="Ellipse 2"><path id="path3_fill-22" data-name="path3 fill" class="cls-1" d="M617 6a5 5 0 1 1-5-5 5 5 0 0 1 5 5z"/><g mask="url(#mask-9)"><path id="path4_stroke_2x-8" data-name="path4 stroke 2x" class="cls-5" d="M616 6a4 4 0 0 1-4 4v2a6 6 0 0 0 6-6zm-4 4a4 4 0 0 1-4-4h-2a6 6 0 0 0 6 6zm-4-4a4 4 0 0 1 4-4V0a6 6 0 0 0-6 6zm4-4a4 4 0 0 1 4 4h2a6 6 0 0 0-6-6z"/></g></g><g id="Group_2" data-name="Group 2"><g id="Vector_2.1" data-name="Vector 2.1"><path id="path15_stroke" data-name="path15 stroke" class="cls-5" d="M937 544a.5.5 0 0 0 0 1zm90.5-39a.5.5 0 0 0-1 0zm-90 40a.5.5 0 0 0 0-1zm4-1a.5.5 0 0 0 0 1zm1 1a.5.5 0 0 0 0-1zm4-1a.5.5 0 0 0 0 1zm1 1a.5.5 0 0 0 0-1zm4-1a.5.5 0 0 0 0 1zm1 1a.5.5 0 0 0 0-1zm4-1a.5.5 0 0 0 0 1zm1 1a.5.5 0 0 0 0-1zm4-1a.5.5 0 0 0 0 1zm1 1a.5.5 0 0 0 0-1zm4-1a.5.5 0 0 0 0 1zm1 1a.5.5 0 0 0 0-1zm4-1a.5.5 0 0 0 0 1zm1 1a.5.5 0 0 0 0-1zm4-1a.5.5 0 0 0 0 1zm1 1a.5.5 0 0 0 0-1zm4-1a.5.5 0 0 0 0 1zm1 1a.5.5 0 0 0 0-1zm4-1a.5.5 0 0 0 0 1zm1 1a.5.5 0 0 0 0-1zm4-1a.5.5 0 0 0 0 1zm1 1a.5.5 0 0 0 0-1zm4-1a.5.5 0 0 0 0 1zm1 1a.5.5 0 0 0 0-1zm4-1a.5.5 0 0 0 0 1zm1 1a.5.5 0 0 0 0-1zm4-1a.5.5 0 0 0 0 1zm1 1a.49.49 0 0 0 .48-.51.5.5 0 0 0-.51-.49zm4-1.52a.5.5 0 0 0-.37.6.51.51 0 0 0 .61.37zm1.27.69a.5.5 0 0 0-.28-1zm3.49-2.52a.49.49 0 0 0-.2.68.49.49 0 0 0 .67.2zm1.4.34a.5.5 0 1 0-.52-.85zm2.71-3.34a.5.5 0 1 0 .69.73zm1.45 0a.5.5 0 0 0-.73-.69zm1.76-3.92a.5.5 0 1 0 .85.52zm1.39-.41a.49.49 0 0 0-.2-.67.49.49 0 0 0-.68.2zm.68-4.24a.5.5 0 0 0 1 .28zm1.24-.75a.51.51 0 0 0-.37-.61.5.5 0 0 0-.6.37zm-.45-4.28a.5.5 0 0 0 .49.51.49.49 0 0 0 .51-.48zm1-1a.5.5 0 0 0-1 0zm-1-3.9a.5.5 0 1 0 1 0zm1-1a.5.5 0 1 0-1 0zm-1-3.9a.5.5 0 0 0 1 0zm1-1a.5.5 0 0 0-1 0zm-1-3.9a.5.5 0 1 0 1 0zm1-1a.5.5 0 1 0-1 0zm-1-3.9a.5.5 0 0 0 1 0zM937 545h.5v-1h-.5zm4.5 0h1v-1h-1zm5 0h1v-1h-1zm5 0h1v-1h-1zm5 0h1v-1h-1zm5 0h1v-1h-1zm5 0h1v-1h-1zm5 0h1v-1h-1zm5 0h1v-1h-1zm5 0h1v-1h-1zm5 0h1v-1h-1zm5 0h1v-1h-1zm5 0h1v-1h-1zm5 0h1v-1h-1zm5 0h.5v-1h-.5zm.5 0h.54v-1h-.54zm4.79-.56l1-.28-.28-1q-.48.15-1 .27zm5-1.92q.48-.25.93-.54l-.52-.85c-.29.18-.58.35-.88.51zm4.33-3.15l.76-.76-.73-.69q-.35.38-.72.72zm3.37-4.16q.29-.45.54-.93l-.88-.47c-.16.3-.33.59-.51.88zm2.18-4.89c.1-.34.19-.68.28-1l-1-.24q-.12.51-.27 1zm.83-5.28v-.54h-1v.51zm0-.54v-.5h-1v.49zm0-4.39v-1h-1v1zm0-4.87v-1h-1v1zm0-4.88v-1h-1v1zm0-4.87V505h-1v.49z"/></g><g id="Ellipse_2.5" data-name="Ellipse 2.5"><path id="path3_fill-23" data-name="path3 fill" class="cls-1" d="M1032 501a5 5 0 1 1-5-5 5 5 0 0 1 5 5z"/><g mask="url(#mask-10)"><path id="path4_stroke_2x-9" data-name="path4 stroke 2x" class="cls-5" d="M1031 501a4 4 0 0 1-4 4v2a6 6 0 0 0 6-6zm-4 4a4 4 0 0 1-4-4h-2a6 6 0 0 0 6 6zm-4-4a4 4 0 0 1 4-4v-2a6 6 0 0 0-6 6zm4-4a4 4 0 0 1 4 4h2a6 6 0 0 0-6-6z"/></g></g></g><g id="Group_2-2" data-name="Group 2"><g id="Vector_2" data-name="Vector 2"><path id="path18_stroke" data-name="path18 stroke" class="cls-5" d="M869.5 268.5a.5.5 0 0 0 0 1zm118-39a.5.5 0 0 0-1 0zm-117.5 40a.5.5 0 0 0 0-1zm3.9-1a.5.5 0 1 0 0 1zm1 1a.5.5 0 1 0 0-1zm3.9-1a.5.5 0 0 0 0 1zm1 1a.5.5 0 0 0 0-1zm3.9-1a.5.5 0 1 0 0 1zm1 1a.5.5 0 1 0 0-1zm3.9-1a.5.5 0 0 0 0 1zm1 1a.5.5 0 0 0 0-1zm3.9-1a.5.5 0 1 0 0 1zm1 1a.5.5 0 1 0 0-1zm3.9-1a.5.5 0 0 0 0 1zm1 1a.5.5 0 0 0 0-1zm3.9-1a.5.5 0 1 0 0 1zm1 1a.5.5 0 1 0 0-1zm3.9-1a.5.5 0 0 0 0 1zm1 1a.5.5 0 0 0 0-1zm3.9-1a.5.5 0 1 0 0 1zm1 1a.5.5 0 1 0 0-1zm3.9-1a.5.5 0 0 0 0 1zm1 1a.5.5 0 0 0 0-1zm3.9-1a.5.5 0 1 0 0 1zm1 1a.5.5 0 1 0 0-1zm3.9-1a.5.5 0 0 0 0 1zm1 1a.5.5 0 0 0 0-1zm3.9-1a.5.5 0 1 0 0 1zm1 1a.5.5 0 1 0 0-1zm3.9-1a.5.5 0 0 0 0 1zm1 1a.5.5 0 0 0 0-1zm3.9-1a.5.5 0 1 0 0 1zm1 1a.5.5 0 1 0 0-1zm3.9-1a.5.5 0 0 0 0 1zm1 1a.5.5 0 0 0 0-1zm3.9-1a.5.5 0 1 0 0 1zm1 1a.5.5 0 1 0 0-1zm3.9-1a.5.5 0 0 0 0 1zm1 1a.5.5 0 0 0 0-1zm3.9-1a.5.5 0 1 0 0 1zm1 1a.5.5 0 1 0 0-1zm3.9-1a.5.5 0 0 0 0 1zm1 1a.49.49 0 0 0 0-.5.5.5 0 0 0-.51-.49zm4-1.52a.5.5 0 0 0-.38.6.51.51 0 0 0 .61.37zm1.26.69a.5.5 0 0 0-.28-1zm3.49-2.52a.49.49 0 0 0-.2.68.49.49 0 0 0 .67.2zm1.4.34a.5.5 0 1 0-.52-.85zm2.71-3.34a.5.5 0 1 0 .69.73zm1.45 0a.5.5 0 0 0-.73-.69zm1.76-3.92a.51.51 0 0 0 .16.69.5.5 0 0 0 .69-.17zm1.39-.41a.49.49 0 0 0-.2-.67.49.49 0 0 0-.68.2zm.68-4.24a.5.5 0 0 0 1 .28zm1.24-.75a.51.51 0 0 0-.37-.61.52.52 0 0 0-.61.37zm-.45-4.28a.5.5 0 0 0 .49.51.49.49 0 0 0 .51-.48zm1-1a.5.5 0 0 0-1 0zm-1-3.9a.5.5 0 1 0 1 0zm1-1a.5.5 0 1 0-1 0zm-1-3.9a.5.5 0 0 0 1 0zm1-1a.5.5 0 0 0-1 0zm-1-3.9a.5.5 0 1 0 1 0zm1-1a.5.5 0 1 0-1 0zm-1-3.9a.5.5 0 0 0 1 0zm-117 39.51h.07v-1h-.49zm4.39 0h1v-1h-1zm4.87 0h1v-1h-1zm4.88 0h1v-1h-1zm4.87 0h1v-1h-1zm4.88 0h1v-1h-1zm4.87 0h1v-1h-1zm4.88 0h1v-1h-1zm4.87 0h1v-1h-1zm4.88 0h1v-1h-1zm4.87 0h1v-1h-1zm4.88 0h1v-1h-1zm4.87 0h1v-1h-1zm4.88 0h1v-1h-1zm4.87 0h1v-1h-1zm4.88 0h1v-1h-1zm4.87 0h1v-1h-1zm4.88 0h1v-1h-1zm4.87 0h1v-1h-1zm4.88 0h1v-1h-1zm4.87 0h.06v-1h-.49zm.49 0h.54v-1H967zm4.79-.56l1-.28-.28-1c-.33.1-.65.19-1 .27zm5-1.92q.48-.25.93-.54l-.52-.85c-.29.18-.58.35-.88.51zm4.33-3.15l.76-.76-.73-.69q-.35.38-.72.72zm3.37-4.16q.28-.45.54-.93l-.88-.47c-.16.3-.33.59-.51.88zm2.18-4.89c.1-.34.19-.68.28-1l-1-.24c-.07.34-.16.67-.26 1zm.83-5.28v-.54h-1v.51zm0-.54v-.49h-1v.53zm0-4.39v-1h-1v1zm0-4.87v-1h-1v1zm0-4.88v-1h-1v1zm0-4.87v-.49h-1v.54z"/></g><g id="Ellipse_2.6" data-name="Ellipse 2.6"><path id="path3_fill-24" data-name="path3 fill" class="cls-1" d="M992 225a5 5 0 1 1-5-5 5 5 0 0 1 5 5z"/><g mask="url(#mask-11)"><path id="path4_stroke_2x-10" data-name="path4 stroke 2x" class="cls-5" d="M991 225a4 4 0 0 1-4 4v2a6 6 0 0 0 6-6zm-4 4a4 4 0 0 1-4-4h-2a6 6 0 0 0 6 6zm-4-4a4 4 0 0 1 4-4v-2a6 6 0 0 0-6 6zm4-4a4 4 0 0 1 4 4h2a6 6 0 0 0-6-6z"/></g></g></g><g id="Group_2-3" data-name="Group 2"><g id="Ellipse_2.4" data-name="Ellipse 2.4"><path id="path3_fill-25" data-name="path3 fill" class="cls-1" d="M901 796a5 5 0 1 1-5-5 5 5 0 0 1 5 5z"/><g mask="url(#mask-12)"><path id="path4_stroke_2x-11" data-name="path4 stroke 2x" class="cls-5" d="M900 796a4 4 0 0 1-4 4v2a6 6 0 0 0 6-6zm-4 4a4 4 0 0 1-4-4h-2a6 6 0 0 0 6 6zm-4-4a4 4 0 0 1 4-4v-2a6 6 0 0 0-6 6zm4-4a4 4 0 0 1 4 4h2a6 6 0 0 0-6-6z"/></g></g><g id="Vector_2-2" data-name="Vector 2"><path id="path21_stroke" data-name="path21 stroke" class="cls-5" d="M793 759a.5.5 0 0 0 0 1zm102 33a.5.5 0 0 0 1 0zm-101.51-32a.5.5 0 0 0 0-1zm3.88-1a.5.5 0 1 0 0 1zm1 1a.5.5 0 1 0 0-1zm3.88-1a.5.5 0 0 0 0 1zm1 1a.5.5 0 0 0 0-1zm3.88-1a.5.5 0 0 0 0 1zm1 1a.5.5 0 0 0 0-1zm3.89-1a.5.5 0 1 0 0 1zm1 1a.5.5 0 1 0 0-1zm3.88-1a.5.5 0 0 0 0 1zm1 1a.5.5 0 0 0 0-1zm3.88-1a.5.5 0 0 0 0 1zm1 1a.5.5 0 0 0 0-1zm3.89-1a.5.5 0 0 0 0 1zm1 1a.5.5 0 0 0 0-1zm3.88-1a.5.5 0 0 0 0 1zm1 1a.5.5 0 0 0 0-1zm3.88-1a.5.5 0 0 0 0 1zm1 1a.5.5 0 0 0 0-1zm3.88-1a.5.5 0 0 0 0 1zm1 1a.5.5 0 0 0 0-1zm3.89-1a.5.5 0 0 0 0 1zm1 1a.5.5 0 0 0 0-1zm3.88-1a.5.5 0 0 0 0 1zm1 1a.5.5 0 0 0 0-1zm3.88-1a.5.5 0 1 0 0 1zm1 1a.5.5 0 1 0 0-1zm3.89-1a.5.5 0 0 0 0 1zm1 1a.5.5 0 0 0 0-1zm3.88-1a.5.5 0 0 0 0 1zm1 1a.5.5 0 0 0 0-1zm3.88-1a.5.5 0 1 0 0 1zm1 1a.5.5 0 1 0 0-1zm3.88-1a.5.5 0 0 0 0 1zm1 1a.5.5 0 0 0 .51-.49.49.49 0 0 0-1-.51zm4.28-.45a.51.51 0 0 0-.61.37.5.5 0 0 0 .37.6zm.75 1.24a.5.5 0 0 0 .28-1zm4.24.68a.49.49 0 0 0-.67.2.49.49 0 0 0 .2.68zm.41 1.39a.5.5 0 1 0 .52-.85zm3.92 1.76a.5.5 0 0 0-.69.73zm0 1.45a.5.5 0 1 0 .73-.69zm3.34 2.71a.5.5 0 1 0-.85.52zm-.34 1.4a.49.49 0 0 0 .68.2.49.49 0 0 0 .2-.67zm2.52 3.49a.5.5 0 1 0-1 .28zm-.7 1.27a.52.52 0 0 0 .61.37.51.51 0 0 0 .37-.61zm1.53 4a.49.49 0 0 0-.51-.48.5.5 0 0 0-.49.51zm-1 1a.5.5 0 1 0 1 0zm1 3.33a.5.5 0 0 0-1 0zm-1 .83a.5.5 0 0 0 1 0zm1 3.34a.5.5 0 0 0-1 0zm-1 .83a.5.5 0 0 0 1 0zm1 3.33a.5.5 0 1 0-1 0zM793 760h.49v-1H793zm4.37 0h1v-1h-1zm4.85 0h1v-1h-1zm4.85 0h1v-1h-1zm4.86 0h1v-1h-1zm4.85 0h1v-1h-1zm4.85 0h1v-1h-1zm4.86 0h1v-1h-1zm4.85 0h1v-1h-1zm4.85 0h1v-1h-1zm4.85 0h1v-1h-1zm4.86 0h1v-1h-1zm4.85 0h1v-1h-1zm4.85 0h1v-1h-1zm4.86 0h1v-1h-1zm4.85 0h1v-1h-1zm4.85 0h1v-1h-1zm4.85 0h.49v-1h-.5zm.49 0h.5v-1h-.54zm4.55.53q.51.12 1 .27l.28-1-1-.28zm4.76 1.83c.3.16.59.33.88.51l.52-.85q-.45-.28-.93-.54zm4.11 3q.38.35.72.72l.73-.69-.76-.76zm3.21 3.95c.18.29.35.58.51.88l.88-.47q-.25-.48-.54-.93zm2.07 4.69c.1.32.19.65.26 1l1-.24a17.6 17.6 0 0 0-.28-1zm.79 5v.51h1v-.54zm0 .51v.42h1v-.42zm0 3.75v.83h1v-.83zm0 4.17v.83h1v-.83zm0 4.16v.41h1v-.42z"/></g></g><g id="Group_2-4" data-name="Group 2"><g id="Ellipse_2.3" data-name="Ellipse 2.3"><path id="path3_fill-26" data-name="path3 fill" class="cls-1" d="M236 889a5 5 0 1 1-5-5 5 5 0 0 1 5 5z"/><g mask="url(#mask-13)"><path id="path4_stroke_2x-12" data-name="path4 stroke 2x" class="cls-5" d="M235 889a4 4 0 0 1-4 4v2a6 6 0 0 0 6-6zm-4 4a4 4 0 0 1-4-4h-2a6 6 0 0 0 6 6zm-4-4a4 4 0 0 1 4-4v-2a6 6 0 0 0-6 6zm4-4a4 4 0 0 1 4 4h2a6 6 0 0 0-6-6z"/></g></g><g id="Vector_3" data-name="Vector 3"><path id="path24_stroke" data-name="path24 stroke" class="cls-5" d="M340.5 855.5a.5.5 0 0 0-1 0zm-105 33a.5.5 0 0 0 0 1zm.5 1a.5.5 0 0 0 0-1zm4-1a.5.5 0 0 0 0 1zm1 1a.5.5 0 1 0 0-1zm4-1a.5.5 0 0 0 0 1zm1 1a.5.5 0 1 0 0-1zm4-1a.5.5 0 0 0 0 1zm1 1a.5.5 0 1 0 0-1zm4-1a.5.5 0 1 0 0 1zm1 1a.5.5 0 1 0 0-1zm4-1a.5.5 0 0 0 0 1zm1 1a.5.5 0 0 0 0-1zm4-1a.5.5 0 1 0 0 1zm1 1a.5.5 0 0 0 0-1zm4-1a.5.5 0 1 0 0 1zm1 1a.5.5 0 0 0 0-1zm4-1a.5.5 0 0 0 0 1zm1 1a.5.5 0 0 0 0-1zm4-1a.5.5 0 0 0 0 1zm1 1a.5.5 0 0 0 0-1zm4-1a.5.5 0 0 0 0 1zm1 1a.5.5 0 1 0 0-1zm4-1a.5.5 0 0 0 0 1zm1 1a.5.5 0 1 0 0-1zm4-1a.5.5 0 0 0 0 1zm1 1a.5.5 0 0 0 0-1zm4-1a.5.5 0 1 0 0 1zm1 1a.5.5 0 1 0 0-1zm4-1a.5.5 0 1 0 0 1zm1 1a.5.5 0 0 0 0-1zm4-1a.5.5 0 1 0 0 1zm1 1a.5.5 0 0 0 0-1zm4-1a.5.5 0 0 0 0 1zm1 1a.5.5 0 0 0 0-1zm4-1a.5.5 0 0 0 0 1zm1 1a.49.49 0 0 0 0-.5.5.5 0 0 0-.51-.49zm4-1.52a.5.5 0 0 0-.37.6.51.51 0 0 0 .61.37zm1.27.69a.5.5 0 1 0-.28-1zm3.49-2.52a.49.49 0 0 0-.2.68.49.49 0 0 0 .67.2zm1.4.34a.5.5 0 1 0-.52-.85zm2.71-3.34a.5.5 0 1 0 .69.73zm1.45 0a.5.5 0 0 0-.73-.69zm1.76-3.92a.51.51 0 0 0 .16.69.5.5 0 0 0 .69-.17zm1.39-.41a.49.49 0 0 0-.2-.67.49.49 0 0 0-.68.2zm.68-4.24a.5.5 0 1 0 1 .28zm1.24-.75a.51.51 0 0 0-.37-.61.52.52 0 0 0-.61.37zm-.45-4.28a.5.5 0 0 0 .49.51.49.49 0 0 0 .51-.48zm1-1a.5.5 0 0 0-1 0zm-1-3.6a.5.5 0 0 0 1 0zm1-.9a.5.5 0 0 0-1 0zm-1-3.6a.5.5 0 0 0 1 0zm1-.9a.5.5 0 0 0-1 0zm-1-3.6a.5.5 0 0 0 1 0zm-104 33.55h.5v-1h-.5zm4.47 0h1v-1h-1zm5 0h1v-1h-1zm5 0h1v-1h-1zm5 0h1v-1h-1zm5 0h1v-1h-1zm5 0h1v-1h-1zm5 0h1v-1h-1zm5 0h1v-1h-1zm5 0h1v-1h-1zm5 0h1v-1h-1zm5 0h1v-1h-1zm5 0h1v-1h-1zm5 0h1v-1h-1zm5 0h1v-1h-1zm5 0h1v-1h-1zm5 0h1v-1h-1zm5 0h.5v-1h-.5zm.5 0h.54v-1H320zm4.79-.56l1-.28-.28-1q-.48.15-1 .27zm5-1.92q.48-.25.93-.54l-.52-.85c-.29.18-.58.35-.88.51zm4.33-3.15l.76-.76-.73-.69q-.34.38-.72.72zm3.37-4.16q.28-.45.54-.93l-.88-.47c-.16.3-.33.59-.51.88zm2.18-4.89c.1-.34.19-.68.28-1l-1-.24c-.07.34-.16.67-.26 1zm.83-5.28V869h-1v.51zm0-.54v-.45h-1v.45zm0-4v-.9h-1v.9zm0-4.5v-.9h-1v.9zm0-4.5v-.45h-1v.45z"/></g></g><g id="Group_2-5" data-name="Group 2"><g id="Ellipse_2.2" data-name="Ellipse 2.2"><path id="path3_fill-27" data-name="path3 fill" class="cls-1" d="M11 474a5 5 0 1 1-5-5 5 5 0 0 1 5 5z"/><g mask="url(#mask-14)"><path id="path4_stroke_2x-13" data-name="path4 stroke 2x" class="cls-5" d="M10 474a4 4 0 0 1-4 4v2a6 6 0 0 0 6-6zm-4 4a4 4 0 0 1-4-4H0a6 6 0 0 0 6 6zm-4-4a4 4 0 0 1 4-4v-2a6 6 0 0 0-6 6zm4-4a4 4 0 0 1 4 4h2a6 6 0 0 0-6-6z"/></g></g><g id="Vector_4" data-name="Vector 4"><path id="path27_stroke" data-name="path27 stroke" class="cls-5" d="M95.5 552a.5.5 0 0 0 0-1zM6 478.5a.5.5 0 0 0-1 0zm-1 .5a.5.5 0 0 0 1 0zm1 3.86a.5.5 0 0 0-1 0zm-1 1a.5.5 0 0 0 1 0zm1 3.85a.5.5 0 0 0-1 0zm-1 1a.5.5 0 0 0 1 0zm1 3.85a.5.5 0 0 0-1 0zm-1 1a.5.5 0 0 0 1 0zm1 3.85a.5.5 0 0 0-1 0zm-1 1a.5.5 0 0 0 1 0zm1 3.86a.5.5 0 0 0-1 0zm-1 1a.5.5 0 0 0 1 0zm1 3.86a.5.5 0 0 0-1 0zm-1 1a.5.5 0 0 0 1 0zm1 3.86a.5.5 0 0 0-1 0zm-1 1a.5.5 0 0 0 1 0zm1 3.85a.5.5 0 0 0-1 0zm-1 1a.5.5 0 0 0 1 0zm1 3.85a.5.5 0 0 0-1 0zm-1 1a.5.5 0 0 0 1 0zm1 3.85a.5.5 0 0 0-1 0zm-1 1a.5.5 0 0 0 1 0zM6 531a.5.5 0 0 0-1 0zm-1 1a.49.49 0 0 0 .51.48A.5.5 0 0 0 6 532zm1.52 4a.5.5 0 0 0-.6-.37.51.51 0 0 0-.37.61zm-.69 1.27a.5.5 0 0 0 1-.28zm2.52 3.49a.49.49 0 0 0-.68-.2.49.49 0 0 0-.2.67zM8 542.21a.5.5 0 1 0 .85-.52zm3.34 2.71a.5.5 0 1 0-.73.69zm0 1.45a.5.5 0 1 0 .69-.73zm3.92 1.76a.5.5 0 1 0-.52.85zm.41 1.39a.49.49 0 0 0 .67-.2.49.49 0 0 0-.2-.68zm4.24.68a.5.5 0 0 0-.28 1zm.75 1.24a.51.51 0 0 0 .61-.37.5.5 0 0 0-.37-.6zM25 551a.5.5 0 0 0-.51.49.49.49 0 0 0 .51.51zm1 1a.5.5 0 0 0 0-1zm4-1a.5.5 0 0 0 0 1zm1 1a.5.5 0 0 0 0-1zm4-1a.5.5 0 0 0 0 1zm1 1a.5.5 0 0 0 0-1zm4-1a.5.5 0 0 0 0 1zm1 1a.5.5 0 0 0 0-1zm4-1a.5.5 0 0 0 0 1zm1 1a.5.5 0 0 0 0-1zm4-1a.5.5 0 0 0 0 1zm1 1a.5.5 0 0 0 0-1zm4-1a.5.5 0 0 0 0 1zm1 1a.5.5 0 0 0 0-1zm4-1a.5.5 0 0 0 0 1zm1 1a.5.5 0 0 0 0-1zm4-1a.5.5 0 0 0 0 1zm1 1a.5.5 0 0 0 0-1zm4-1a.5.5 0 0 0 0 1zm1 1a.5.5 0 0 0 0-1zm4-1a.5.5 0 0 0 0 1zm1 1a.5.5 0 0 0 0-1zm4-1a.5.5 0 0 0 0 1zm1 1a.5.5 0 0 0 0-1zm4-1a.5.5 0 0 0 0 1zm1 1a.5.5 0 0 0 0-1zm4-1a.5.5 0 0 0 0 1zm1 1a.5.5 0 0 0 0-1zm4-1a.5.5 0 0 0 0 1zM5 478.5v.5h1v-.48zm0 4.34v1h1v-1zm0 4.81v1h1v-1zm0 4.82v1h1v-1zm0 4.82v1h1v-1zm0 4.82v1h1v-1zm0 4.82v1h1v-1zm0 4.82v1h1v-1zm0 4.81v1h1v-1zm0 4.82v1h1v-1zm0 4.82v1h1v-1zm0 4.8v.48h1V531zm0 .48v.54h1v-.51zm.56 4.79c.09.35.18.69.28 1l1-.28q-.15-.48-.27-1zm1.92 5q.25.48.54.93l.85-.52c-.18-.29-.35-.58-.51-.88zm3.15 4.33l.76.76.69-.73q-.37-.35-.72-.72zm4.16 3.4q.45.28.93.54l.47-.88c-.3-.16-.59-.33-.88-.51zm4.89 2.18l1 .28.24-1q-.51-.12-1-.27zM25 552h.54v-1H25zm.54 0H26v-1h-.5zm4.5 0h1v-1H30zm5 0h1v-1H35zm5 0h1v-1H40zm5 0h1v-1H45zm5 0h1v-1H50zm5 0h1v-1H55zm5 0h1v-1H60zm5 0h1v-1H65zm5 0h1v-1H70zm5 0h1v-1H75zm5 0h1v-1H80zm5 0h1v-1H85zm5 0h1v-1H90zm5 0h.5v-1H95z"/></g></g><g id="Group_2-6" data-name="Group 2"><g id="Ellipse_2.1" data-name="Ellipse 2.1"><path id="path3_fill-28" data-name="path3 fill" class="cls-1" d="M55 202a5 5 0 1 1-5-5 5 5 0 0 1 5 5z"/><g mask="url(#mask-15)"><path id="path4_stroke_2x-14" data-name="path4 stroke 2x" class="cls-5" d="M54 202a4 4 0 0 1-4 4v2a6 6 0 0 0 6-6zm-4 4a4 4 0 0 1-4-4h-2a6 6 0 0 0 6 6zm-4-4a4 4 0 0 1 4-4v-2a6 6 0 0 0-6 6zm4-4a4 4 0 0 1 4 4h2a6 6 0 0 0-6-6z"/></g></g><g id="Vector_5" data-name="Vector 5"><path id="path30_stroke" data-name="path30 stroke" class="cls-5" d="M159 269a.5.5 0 0 0 0-1zM50.5 207a.5.5 0 0 0-1 0zm-1 .52a.5.5 0 0 0 1 0zm1 4.15a.5.5 0 1 0-1 0zm-1 1a.5.5 0 1 0 1 0zm1 4.15a.5.5 0 0 0-1 0zm-1 1a.5.5 0 0 0 1 0zm1 4.15a.5.5 0 1 0-1 0zm-1 1a.5.5 0 1 0 1 0zm1 4.15a.5.5 0 0 0-1 0zm-1 1a.5.5 0 0 0 1 0zm1 4.15a.5.5 0 1 0-1 0zm-1 1a.5.5 0 1 0 1 0zm1 4.15a.5.5 0 0 0-1 0zm-1 1a.5.5 0 0 0 1 0zm1 4.15a.5.5 0 1 0-1 0zm-1 1a.5.5 0 1 0 1 0zm1 4.15a.5.5 0 0 0-1 0zm-1 1.06a.49.49 0 0 0 .51.48.5.5 0 0 0 .49-.51zm1.52 4a.5.5 0 0 0-.6-.37.51.51 0 0 0-.37.61zm-.69 1.27a.5.5 0 0 0 1-.28zm2.52 3.49a.49.49 0 0 0-.68-.2.49.49 0 0 0-.2.67zm-.34 1.4a.5.5 0 1 0 .85-.52zm3.34 2.71a.5.5 0 1 0-.73.69zm0 1.45a.5.5 0 1 0 .69-.73zm3.92 1.76a.5.5 0 1 0-.52.85zm.41 1.39a.49.49 0 0 0 .67-.2.49.49 0 0 0-.2-.68zm4.24.68a.5.5 0 1 0-.28 1zm.75 1.24a.51.51 0 0 0 .61-.37.5.5 0 0 0-.37-.6zm4.28-.45a.5.5 0 0 0-.51.49.49.49 0 0 0 .48.51zm1 1a.5.5 0 1 0 0-1zm4-1a.5.5 0 1 0 0 1zm1 1a.5.5 0 0 0 0-1zm4-1a.5.5 0 1 0 0 1zm1 1a.5.5 0 0 0 0-1zm4-1a.5.5 0 0 0 0 1zm1 1a.5.5 0 0 0 0-1zm4-1a.5.5 0 1 0 0 1zm1 1a.5.5 0 0 0 0-1zm4-1a.5.5 0 0 0 0 1zm1 1a.5.5 0 1 0 0-1zm4-1a.5.5 0 0 0 0 1zm1 1a.5.5 0 0 0 0-1zm4-1a.5.5 0 0 0 0 1zm1 1a.5.5 0 1 0 0-1zm4-1a.5.5 0 0 0 0 1zm1 1a.5.5 0 1 0 0-1zm4-1a.5.5 0 1 0 0 1zm1 1a.5.5 0 1 0 0-1zm4-1a.5.5 0 1 0 0 1zm1 1a.5.5 0 0 0 0-1zm4-1a.5.5 0 1 0 0 1zm1 1a.5.5 0 0 0 0-1zm4-1a.5.5 0 0 0 0 1zm1 1a.5.5 0 1 0 0-1zm3.95-1a.5.5 0 1 0 0 1zm1 1a.5.5 0 0 0 0-1zm4-1a.5.5 0 0 0 0 1zm1 1a.5.5 0 1 0 0-1zm3.95-1a.5.5 0 1 0 0 1zm1 1a.5.5 0 0 0 0-1zm4-1a.5.5 0 0 0 0 1zm1 1a.5.5 0 0 0 0-1zm3.95-1a.5.5 0 0 0 0 1zm1 1a.5.5 0 0 0 0-1zm4-1a.5.5 0 0 0 0 1zm-109-61v.52h1V207zm0 4.67v1h1v-1zm0 5.19v1h1v-1zm0 5.18v1h1v-1zm0 5.19v1h1v-1zm0 5.19v1h1v-1zm0 5.19v1h1v-1zm0 5.18v1h1v-1zm0 5.19v.52h1V248zm0 .52v.54h1v-.51zm.56 4.79c.09.35.18.69.28 1l1-.28q-.15-.48-.27-1zm1.92 5q.26.48.54.93l.85-.52c-.18-.29-.35-.58-.51-.88zm3.15 4.33l.76.76.69-.73q-.37-.34-.72-.72zm3.36 3.66q.45.28.93.54l.47-.88c-.3-.16-.59-.33-.88-.51zm4.89 2.18l1 .28.24-1q-.51-.12-1-.27zm5.28.83H70v-1h-.51zm.54 0h.49v-1H70zm4.45 0h1v-1h-1zm4.94 0h1v-1h-1zm5 0h1v-1h-1zm4.94 0h1v-1h-1zm5 0h1v-1h-1zm4.94 0h1v-1h-1zm5 0h1v-1h-1zm4.94 0h1v-1h-1zm5 0h1v-1h-1zm4.94 0h1v-1h-1zm4.94 0h1v-1h-1zm5 0h1v-1h-1zm4.94 0h1v-1h-1zm4.95 0h1v-1h-1zm4.94 0h1v-1h-1zm5 0h1v-1h-1zm4.94 0h1v-1h-1zm4.95 0h.19v-1h-.49z"/></g></g></g></g></svg>