<svg width="80" height="80" xmlns="http://www.w3.org/2000/svg" xmlns:xlink="http://www.w3.org/1999/xlink"><use xlink:href="#path0_fill" fill="#FEEDC2"/><use xlink:href="#path1_fill" transform="translate(11 24)" fill="#F9CF86"/><use xlink:href="#path2_fill" transform="translate(20.5 24)" fill="#F3AF37"/><defs><path id="path0_fill" d="M80 40c0 22.091-17.909 40-40 40S0 62.091 0 40 17.909 0 40 0s40 17.909 40 40z"/><path id="path1_fill" d="M45.078 24.171L29.9 6.384a1.276 1.276 0 0 0-1.566-.287l-6.982 3.756a5.288 5.288 0 0 1-4.55.22 1.512 1.512 0 0 1-.908-1.13 1.471 1.471 0 0 1 .481-1.351L24.573 1.6C26.806-.04 29.756-.451 32.378.513l13.05 4.795c.836.308 1.72.47 2.615.474h7.772c.623.004 1.126.492 1.126 1.094v15.367c0 .288-.12.568-.332.772-.213.205-.5.322-.801.322h-8.44c-.406 0-.8.136-1.115.382l-.647.504a.394.394 0 0 1-.528-.052zm-6.151 3.907l.208.194c.818.785 2.08.942 3.08.385a2.412 2.412 0 0 0 1.193-1.707 2.363 2.363 0 0 0-.6-1.975l-1.53-1.781L28.904 8.64a.42.42 0 0 0-.517-.091l-5.931 3.194a7.637 7.637 0 0 1-6.198.448A3.91 3.91 0 0 1 13.837 9.9a4.184 4.184 0 0 1 .398-3.293.552.552 0 0 0-.018-.54.594.594 0 0 0-.473-.286H1.114C.496 5.792 0 6.28 0 6.876v15.367c0 .289.12.568.331.772.213.206.5.322.802.322h7.016l1.707-2.022h.003c1.03-1.22 2.68-1.783 4.274-1.459 1.597.322 2.873 1.477 3.311 2.993 1.47.392 2.62 1.495 3.038 2.909a4.347 4.347 0 0 1 2.548 1.92c.925.14 1.78.56 2.44 1.203 1.404 1.414 1.661 3.559.628 5.246l-.255.43c.832.568 1.94.592 2.797.06.857-.535 1.293-1.517 1.1-2.483-.016-.052.049-.09.088-.052l.19.177a2.65 2.65 0 0 0 3.244.315 2.376 2.376 0 0 0 1.026-2.44c-.016-.052.052-.09.09-.052l.19.172a2.65 2.65 0 0 0 3.245.316 2.377 2.377 0 0 0 1.026-2.44c-.016-.052.048-.09.088-.052zM13.73 30.066l.209.155a2.174 2.174 0 0 0 2.27.21c.08-.043.174.018.163.105-.08.7.222 1.39.794 1.826l.142.11a2.195 2.195 0 0 0 2.296.205.126.126 0 0 1 .178.085c.086.51.366.971.788 1.289l.088.069c.493.371 1.13.519 1.742.403a2.149 2.149 0 0 0 1.455-1.01l.315-.527a2.088 2.088 0 0 0-.373-2.647 2.206 2.206 0 0 0-2.326-.353c-.042.024-.095-.011-.088-.058a2.014 2.014 0 0 0-.871-1.77 2.182 2.182 0 0 0-2.011-.253c-.315.058-.25-.212-.25-.212v.002a1.992 1.992 0 0 0-.547-2.29 2.174 2.174 0 0 0-2.42-.272c-.236.03-.208-.176-.208-.176h.003c.563-.953.236-2.168-.737-2.739-.939-.507-2.123-.28-2.787.54l-1.662 1.964a1.988 1.988 0 0 0 .332 2.863l.254.188.003.003a2.16 2.16 0 0 0 2.372.158c.074-.04.163.023.149.103a1.995 1.995 0 0 0 .727 2.03z"/><path id="path2_fill" d="M35.648 24.171L20.469 6.384a1.276 1.276 0 0 0-1.566-.287l-6.981 3.756a5.288 5.288 0 0 1-4.55.22 1.512 1.512 0 0 1-.909-1.13 1.471 1.471 0 0 1 .482-1.351L15.142 1.6C17.376-.04 20.325-.451 22.948.513l13.049 4.795c.836.308 1.721.47 2.616.474h7.771c.623.004 1.126.492 1.126 1.094v15.367c0 .288-.12.568-.331.772-.214.205-.5.322-.802.322h-8.44c-.406 0-.8.136-1.115.382l-.646.504a.394.394 0 0 1-.528-.052zM4.3 30.066l.208.155a2.174 2.174 0 0 0 2.27.21c.08-.043.175.018.163.105-.079.7.222 1.39.795 1.826l.14.11a2.195 2.195 0 0 0 2.297.205.126.126 0 0 1 .178.085c.086.51.366.971.788 1.289l.088.069c.494.371 1.13.519 1.743.403a2.149 2.149 0 0 0 1.455-1.01l.315-.527a2.088 2.088 0 0 0-.373-2.647 2.205 2.205 0 0 0-2.327-.353c-.041.024-.095-.011-.088-.058a2.014 2.014 0 0 0-.87-1.77 2.182 2.182 0 0 0-2.012-.253c-.315.058-.25-.212-.25-.212v.002a1.992 1.992 0 0 0-.547-2.29 2.174 2.174 0 0 0-2.419-.271c-.236.029-.208-.177-.208-.177h.002c.563-.953.236-2.168-.737-2.739-.938-.507-2.122-.28-2.787.54L.463 24.722a1.988 1.988 0 0 0 .331 2.863l.255.188.002.003a2.16 2.16 0 0 0 2.373.158c.074-.04.162.023.148.103a1.995 1.995 0 0 0 .728 2.03z"/></defs></svg>