<svg width="80" height="80" xmlns="http://www.w3.org/2000/svg" xmlns:xlink="http://www.w3.org/1999/xlink"><use xlink:href="#path0_fill" fill="#E7E2FD"/><use xlink:href="#path1_fill" transform="translate(16 15)" fill="#AF9BFB"/><use xlink:href="#path2_fill" transform="translate(29.4 28.4)" fill="#826FF6"/><defs><path id="path0_fill" d="M80 40c0 22.091-17.909 40-40 40S0 62.091 0 40 17.909 0 40 0s40 17.909 40 40z"/><path id="path1_fill" d="M24.5 0C10.987 0 0 10.987 0 24.5S10.987 49 24.5 49 49 38.013 49 24.5 38.013 0 24.5 0zm15.576 36.776l-5.002-5.002a12.541 12.541 0 0 1-3.3 3.3l5.002 5.003c-3.405 2.681-7.634 4.281-12.276 4.281-10.934 0-19.858-8.924-19.858-19.858 0-4.642 1.6-8.871 4.281-12.276l5.003 5.003a12.541 12.541 0 0 1 3.3-3.3l-5.002-5.003c3.405-2.682 7.634-4.282 12.276-4.282 10.934 0 19.858 8.924 19.858 19.858 0 4.642-1.6 8.871-4.282 12.276z"/><path id="path2_fill" d="M11.142 0C5.005 0 0 5.003 0 11.142c0 6.137 5.005 11.142 11.142 11.142s11.142-5.005 11.142-11.142S17.28 0 11.142 0zm.929 17.279v1.134a.46.46 0 0 1-.463.464H10.37a.46.46 0 0 1-.463-.464v-1.237c-1.032-.31-1.908-.876-2.424-1.29-.258-.205-.31-.618-.052-.825l.826-.877c.205-.205.516-.205.774-.052.515.413 1.392.929 2.115.929 1.495 0 1.495-.877 1.495-1.237 0-.516-.155-.98-1.805-1.548-2.374-.826-3.558-2.166-3.558-3.92 0-1.6 1.031-2.837 2.579-3.3V3.867a.46.46 0 0 1 .463-.463h1.237a.46.46 0 0 1 .464.463l-.002 1.084c.876.156 1.6.569 2.063.93.258.205.31.618.102.825l-.826.877c-.205.205-.515.258-.72.103-.361-.258-.93-.516-1.496-.516-.36 0-1.547.103-1.547 1.134 0 .31 0 1.032 2.01 1.703.98.36 3.353 1.186 3.353 3.765.053 1.908-1.082 3.198-2.887 3.506z"/></defs></svg>