<svg width="45" height="60" xmlns="http://www.w3.org/2000/svg" xmlns:xlink="http://www.w3.org/1999/xlink"><use xlink:href="#path0_fill" transform="translate(24.12 31.08)" fill="#87CFFF"/><use xlink:href="#path1_fill" transform="translate(16.56 .78)" fill="#FFF"/><use xlink:href="#path2_fill" transform="translate(16.06)" fill="#5592BC"/><use xlink:href="#path3_fill" transform="translate(28 35.08)" fill="#5592BC"/><use xlink:href="#path4_fill" transform="translate(19.58 3.5)" fill="#87CFFF"/><use xlink:href="#path5_stroke" transform="translate(35.12 30.08)" fill="#5592BC"/><use xlink:href="#path6_fill" transform="translate(0 35.08)" fill="#5592BC"/><defs><path id="path0_fill" d="M11.88 0l.5 6.66L7.88 12h-3L2.44 9.42 0 6.68V0h11.88z"/><path id="path1_fill" d="M26.002 12.97c0 4.92-1.44 9.18-7.44 11.33v6h-12v-6A12.61 12.61 0 0 1 .002 13a13 13 0 0 1 26 0v-.03z"/><path id="path2_fill" d="M13.94 0A13.84 13.84 0 0 0 0 13.75a14.43 14.43 0 0 0 7.06 11.9v12.1a1 1 0 0 0 .2.68l2 2.19 2 2.08c.173.211.42.347.69.38h4a1.09 1.09 0 0 0 .71-.37l4.06-4a1.16 1.16 0 0 0 .36-.75V25.65a14.31 14.31 0 0 0 6.94-11.9A14 14 0 0 0 13.94 0zm5.12 37.5l-3.54 3.58h-3.17l-3.29-3.72v-6.28h10v6.42zm.48-13.34l-.48.28v4.64h-10v-4.64l-.61-.28a11.7 11.7 0 0 1-6.49-10.41 12 12 0 1 1 24 0 11.651 11.651 0 0 1-6.42 10.42v-.01z"/><path id="path3_fill" d="M7 2H1a1 1 0 0 1 0-2h6a1 1 0 1 1 0 2z"/><path id="path4_fill" d="M1 12.33a1 1 0 0 1-1-1A11.39 11.39 0 0 1 11.42 0a1 1 0 1 1 0 2A9.39 9.39 0 0 0 2 11.33a1 1 0 0 1-1 1z"/><path id="path5_stroke" d="M2-1H0v2h2v-2z"/><path id="path6_fill" d="M29.12 6v15.38a1 1 0 0 1-2 0v-9a3 3 0 0 0-6 0v2a1 1 0 0 1-2 0V4.08C19.12 1.8 17.85 0 16 0H1a1 1 0 1 0 0 2h15c.25 0 1.13.38 1.13 2.08v10.3a3 3 0 0 0 6 0v-2a1 1 0 0 1 2 0v9a3 3 0 0 0 6 0V6h-2.01z"/></defs></svg>