<svg width="64" height="64" xmlns="http://www.w3.org/2000/svg" xmlns:xlink="http://www.w3.org/1999/xlink"><use xlink:href="#path0_fill" transform="translate(0 42)" fill="#5592BC"/><use xlink:href="#path1_fill" transform="translate(22 42)" fill="#5592BC"/><use xlink:href="#path2_fill" transform="translate(44 42)" fill="#5592BC"/><use xlink:href="#path3_fill" transform="translate(2 48)" fill="#87CFFF"/><use xlink:href="#path4_fill" transform="translate(24 48)" fill="#87CFFF"/><use xlink:href="#path5_fill" transform="translate(46 48)" fill="#87CFFF"/><use xlink:href="#path6_fill" transform="translate(16 16)" fill="#5592BC"/><use xlink:href="#path7_fill" transform="translate(20 20)" fill="#5592BC"/><use xlink:href="#path7_fill" transform="translate(42 20)" fill="#5592BC"/><use xlink:href="#path8_fill" transform="translate(18 18)" fill="#87CFFF"/><use xlink:href="#path9_fill" transform="translate(6 27)" fill="#FFF"/><use xlink:href="#path9_fill" transform="translate(28 27)" fill="#FFF"/><use xlink:href="#path9_fill" transform="translate(28 1)" fill="#FFF"/><use xlink:href="#path9_fill" transform="translate(50 27)" fill="#FFF"/><use xlink:href="#path10_fill" transform="translate(27)" fill="#5592BC"/><use xlink:href="#path11_fill" transform="translate(24 10)" fill="#5592BC"/><use xlink:href="#path12_fill" transform="translate(49 26)" fill="#5592BC"/><use xlink:href="#path13_fill" transform="translate(46 36)" fill="#5592BC"/><use xlink:href="#path14_fill" transform="translate(27 26)" fill="#5592BC"/><use xlink:href="#path11_fill" transform="translate(24 36)" fill="#5592BC"/><use xlink:href="#path15_fill" transform="translate(5 26)" fill="#5592BC"/><use xlink:href="#path16_fill" transform="translate(2 36)" fill="#5592BC"/><use xlink:href="#path17_fill" transform="translate(16 6.83)" fill="#5592BC"/><use xlink:href="#path18_fill" transform="translate(17.89 4.89)" fill="#5592BC"/><defs><path id="path0_fill" d="M20 22V2a2 2 0 0 0-2-2H2a2 2 0 0 0-2 2v20h20zm-2 0H2V2h16v20z"/><path id="path1_fill" d="M20 22V2a2 2 0 0 0-2-2H2a2 2 0 0 0-2 2v20h20zm-2 0H2V2h16v20z"/><path id="path2_fill" d="M20 22V2a2 2 0 0 0-2-2H2a2 2 0 0 0-2 2v20h20zm-2 0H2V2h16v20z"/><path id="path3_fill" d="M0 16V2a2 2 0 0 1 2-2h12a2 2 0 0 1 2 2v14H0z"/><path id="path4_fill" d="M0 16V2a2 2 0 0 1 2-2h12a2 2 0 0 1 2 2v14H0z"/><path id="path5_fill" d="M0 16V2a2 2 0 0 1 2-2h12a2 2 0 0 1 2 2v14H0z"/><path id="path6_fill" d="M0 0v6h32V0H0zm30 4H2V2h28v2z"/><path id="path7_fill" d="M2 0H0v16h2V0z"/><path id="path8_fill" d="M28 0H0v2h28V0z"/><path id="path9_fill" d="M8 4a4 4 0 1 1-8 0 4 4 0 0 1 8 0z"/><path id="path10_fill" d="M5 10A5 5 0 1 1 5 0a5 5 0 0 1 0 10zm0-8a3 3 0 1 0 0 6 3 3 0 0 0 0-6z"/><path id="path11_fill" d="M14 .003h-1.81a6.42 6.42 0 0 1-4.09 2 6.42 6.42 0 0 1-4.1-2H2c-1.11 0-2-.11-2 1v7h16v-7c0-1.11-.89-1-2-1zm0 6H2v-4h.74c1 0 3 2 5.36 2 2.36 0 4.35-2 5.36-2H14v4z"/><path id="path12_fill" d="M5 10A5 5 0 1 1 5 0a5 5 0 0 1 0 10zm0-8a3 3 0 1 0 0 6 3 3 0 0 0 0-6z"/><path id="path13_fill" d="M14 .003h-1.81a6.42 6.42 0 0 1-4.09 2 6.42 6.42 0 0 1-4.1-2H2c-1.11 0-2-.11-2 1v7h16v-7c0-1.11-.89-1-2-1zm0 6H2v-4h.74c1 0 3 2 5.36 2 2.36 0 4.35-2 5.36-2H14v4z"/><path id="path14_fill" d="M5 10A5 5 0 1 1 5 0a5 5 0 0 1 0 10zm0-8a3 3 0 1 0 0 6 3 3 0 0 0 0-6z"/><path id="path15_fill" d="M5 10A5 5 0 1 1 5 0a5 5 0 0 1 0 10zm0-8a3 3 0 1 0 0 6 3 3 0 0 0 0-6z"/><path id="path16_fill" d="M14 .003h-1.81a6.42 6.42 0 0 1-4.09 2 6.42 6.42 0 0 1-4.1-2H2c-1.11 0-2-.11-2 1v7h16v-7c0-1.11-.89-1-2-1zm0 6H2v-4h.74c1 0 3 2 5.36 2 2.36 0 4.35-2 5.36-2H14v4z"/><path id="path17_fill" d="M4.75 0L.29 4.46a1 1 0 0 0-.29.71v4h2V5.58l4.16-4.17L4.75 0z"/><path id="path18_fill" d="M1.7 5.94a1 1 0 0 1-1.41 0 1 1 0 0 1 0-1.41L4.53.29a1 1 0 0 1 1.41 0 1 1 0 0 1 0 1.41L1.7 5.94z"/></defs></svg>