<svg width="121" height="16" xmlns="http://www.w3.org/2000/svg" xmlns:xlink="http://www.w3.org/1999/xlink"><g opacity=".5"><use xlink:href="#path0_fill" transform="translate(0 .37)" fill="#FFF"/><use xlink:href="#path1_fill" transform="translate(9.54)" fill="#FFF"/><use xlink:href="#path2_fill" transform="translate(13.89 3.45)" fill="#FFF"/><use xlink:href="#path3_fill" transform="translate(24 3.45)" fill="#FFF"/><use xlink:href="#path4_fill" transform="translate(33.3 3.45)" fill="#FFF"/><use xlink:href="#path5_fill" transform="translate(41.72)" fill="#FFF"/><use xlink:href="#path6_fill" transform="translate(51.71)" fill="#FFF"/><use xlink:href="#path7_fill" transform="translate(56.09 3.45)" fill="#FFF"/><use xlink:href="#path8_fill" transform="translate(66.06)" fill="#FFF"/><use xlink:href="#path9_fill" transform="translate(70.03)" fill="#FFF"/><use xlink:href="#path10_fill" transform="translate(76.99 3.48)" fill="#FFF"/><use xlink:href="#path11_fill" transform="translate(87.05)" fill="#FFF"/><use xlink:href="#path12_fill" transform="translate(91.37 9.86)" fill="#FFF"/><use xlink:href="#path13_fill" transform="translate(96.38 3.45)" fill="#FFF"/><use xlink:href="#path14_fill" transform="translate(106.13 3.45)" fill="#FFF"/><use xlink:href="#path15_fill" transform="translate(112.85 3.45)" fill="#FFF"/></g><defs><path id="path0_fill" d="M0 12.153V0h2.345v9.901H8.21v2.239L0 12.153z"/><path id="path1_fill" d="M1.322 2.625A1.28 1.28 0 0 1 .81 2.52a1.35 1.35 0 0 1-.704-.704 1.279 1.279 0 0 1 0-1.02C.173.642.266.501.384.38a1.341 1.341 0 0 1 1.872 0c.118.12.213.261.278.416.064.162.095.335.09.509 0 .175-.035.35-.103.511-.06.157-.15.3-.265.423a1.37 1.37 0 0 1-.42.284 1.28 1.28 0 0 1-.514.102zM.195 12.524V3.658h2.256v8.866H.195z"/><path id="path2_fill" d="M4.08 9.284a4.353 4.353 0 0 1-1.696-.32 3.545 3.545 0 0 1-1.28-.915A4.157 4.157 0 0 1 .29 6.594 6.118 6.118 0 0 1 0 4.65c-.01-.66.087-1.318.288-1.948.17-.538.448-1.036.816-1.464A3.52 3.52 0 0 1 2.385.32a4.658 4.658 0 0 1 3.391 0c.49.205.928.519 1.28.918.368.429.644.928.813 1.467.197.63.293 1.288.284 1.948a6.21 6.21 0 0 1-.284 1.945 4.096 4.096 0 0 1-.81 1.464c-.353.397-.79.71-1.28.915-.54.215-1.118.319-1.699.307zm0-2.168c.264.005.525-.053.762-.17.227-.112.423-.278.573-.483.166-.234.288-.496.361-.774.087-.337.13-.684.125-1.033a3.98 3.98 0 0 0-.125-1.042 2.424 2.424 0 0 0-.361-.777 1.564 1.564 0 0 0-.573-.493 1.796 1.796 0 0 0-1.523 0 1.539 1.539 0 0 0-.57.49 2.424 2.424 0 0 0-.361.777 3.98 3.98 0 0 0-.125 1.042c-.005.348.037.696.125 1.033.072.279.195.542.361.777.148.207.345.374.573.486.237.111.497.164.758.154v.013z"/><path id="path3_fill" d="M5.44 9.07v-5.2a2.218 2.218 0 0 0-.119-.77 1.375 1.375 0 0 0-.32-.528 1.302 1.302 0 0 0-.49-.304 1.802 1.802 0 0 0-.61-.1c-.217 0-.433.03-.64.09-.198.055-.38.154-.535.288-.158.142-.28.318-.358.515a2.004 2.004 0 0 0-.128.777V9.07H0V.205h2.24v.838A2.704 2.704 0 0 1 3.24.273 3.262 3.262 0 0 1 4.611 0c.381 0 .761.058 1.126.17.366.116.701.313.982.575.314.302.556.67.71 1.078.198.532.29 1.098.273 1.666v5.58H5.439z"/><path id="path4_fill" d="M5.21 2.651a4.127 4.127 0 0 0-.292-.262 2.188 2.188 0 0 0-.378-.243 2.356 2.356 0 0 0-1.059-.24 1.745 1.745 0 0 0-.822.17.534.534 0 0 0-.32.492.473.473 0 0 0 .144.32c.113.114.243.208.387.278.179.094.364.175.554.243.21.074.425.15.64.224.377.125.745.265 1.097.422.335.15.648.343.931.576.265.226.482.502.64.812.168.355.25.743.24 1.135.008.398-.077.792-.246 1.152a2.367 2.367 0 0 1-.669.854c-.33.24-.7.417-1.094.521a5.333 5.333 0 0 1-1.427.176c-.358 0-.714-.038-1.063-.115a4.965 4.965 0 0 1-.988-.32A3.968 3.968 0 0 1 .64 8.34 3.148 3.148 0 0 1 0 7.68L1.491 6.42c.096.092.214.191.352.3.148.121.306.228.474.32.186.1.382.18.585.24.219.067.446.1.675.099.33.012.657-.048.96-.176a.64.64 0 0 0 .247-.985 1.372 1.372 0 0 0-.378-.32 4.23 4.23 0 0 0-.602-.294 25.647 25.647 0 0 0-.803-.304 11.84 11.84 0 0 1-1.136-.473 3.699 3.699 0 0 1-.863-.563 2.216 2.216 0 0 1-.548-.742 2.445 2.445 0 0 1-.192-1.017C.255 2.13.343 1.76.518 1.43c.169-.31.405-.578.691-.784A3.053 3.053 0 0 1 2.233.17C2.645.056 3.07-.001 3.497 0a4.63 4.63 0 0 1 1.06.118c.307.076.606.183.892.32.258.124.502.276.726.454.204.163.394.343.567.538L5.209 2.65z"/><path id="path5_fill" d="M3.668 12.735a3.657 3.657 0 0 1-1.507-.32 3.18 3.18 0 0 1-1.159-.892 4.227 4.227 0 0 1-.739-1.459 6.863 6.863 0 0 1-.262-1.992 6.297 6.297 0 0 1 .278-1.944c.163-.53.425-1.023.771-1.456a3.311 3.311 0 0 1 1.165-.914c.46-.216.961-.326 1.469-.32.39-.01.775.07 1.13.233.297.144.558.354.76.614V1.023L7.815 0v12.524h-2.24v-.64c-.185.278-.444.5-.748.64a2.713 2.713 0 0 1-1.158.21zm.368-2.181c.318.01.635-.053.924-.186.246-.122.458-.302.618-.524V6.326a1.398 1.398 0 0 0-.23-.26 1.654 1.654 0 0 0-.343-.236 1.95 1.95 0 0 0-.441-.17 2.094 2.094 0 0 0-.528-.063 1.514 1.514 0 0 0-1.312.64c-.34.546-.5 1.186-.458 1.829-.005.344.033.688.112 1.023.066.28.18.545.34.783.141.21.332.382.556.5a1.6 1.6 0 0 0 .762.182z"/><path id="path6_fill" d="M1.322 2.623a1.331 1.331 0 0 1-1.216-.806 1.279 1.279 0 0 1 0-1.02C.174.642.27.5.39.38a1.328 1.328 0 0 1 1.862 0 1.279 1.279 0 0 1 .38.924c.003.176-.03.35-.098.512a1.359 1.359 0 0 1-.281.419 1.37 1.37 0 0 1-.42.284 1.28 1.28 0 0 1-.511.103zM.195 12.52V3.656h2.24v8.865H.195z"/><path id="path7_fill" d="M2.398 10.666c.503-.03 1.003-.087 1.5-.17.343-.051.675-.16.983-.32a1.28 1.28 0 0 0 .534-.534c.115-.248.17-.52.16-.793v-.243c-.248.25-.555.434-.893.534a3.774 3.774 0 0 1-2.486-.147 3.152 3.152 0 0 1-1.161-.876 4.157 4.157 0 0 1-.762-1.452 6.777 6.777 0 0 1-.272-2.028A6.508 6.508 0 0 1 .27 2.693c.154-.53.41-1.023.752-1.455.313-.39.712-.703 1.165-.915a3.46 3.46 0 0 1 1.5-.32 2.606 2.606 0 0 1 1.888.678V.208h2.256v7.755c0 .32-.016.666-.048.995a6.909 6.909 0 0 1-.15.937c-.068.279-.16.55-.279.812a2.21 2.21 0 0 1-.422.64 3.304 3.304 0 0 1-.73.553 4.436 4.436 0 0 1-.81.352c-.281.09-.57.157-.863.198-.295.042-.592.077-.883.1l-1.248-1.884zm1.638-3.563c.314.012.627-.052.912-.185.25-.124.47-.303.64-.525V2.875a2.486 2.486 0 0 0-.237-.259 1.53 1.53 0 0 0-.32-.237 1.764 1.764 0 0 0-.432-.169 2.17 2.17 0 0 0-.544-.064 1.517 1.517 0 0 0-1.315.64 3.107 3.107 0 0 0-.458 1.829c-.002.334.033.668.106.995.059.278.167.543.32.783a1.572 1.572 0 0 0 1.328.71z"/><path id="path8_fill" d="M1.322 2.626A1.28 1.28 0 0 1 .81 2.52a1.35 1.35 0 0 1-.704-.703 1.279 1.279 0 0 1 0-1.02 1.3 1.3 0 0 1 .71-.694A1.332 1.332 0 0 1 2.259.38c.118.12.214.26.282.415.067.161.1.334.099.509.001.175-.033.35-.1.512a1.36 1.36 0 0 1-.707.706c-.161.07-.336.105-.511.103zM.195 12.524V3.659h2.24v8.865H.195z"/><path id="path9_fill" d="M3.43 12.735a2.714 2.714 0 0 1-.982-.16 1.725 1.725 0 0 1-.666-.46 1.972 1.972 0 0 1-.38-.74 3.704 3.704 0 0 1-.122-.984V5.638H0v-1.98h1.28V1.076L3.52 0v3.659h1.983v1.98H3.52v4.422a.723.723 0 0 0 .166.515.595.595 0 0 0 .46.18 2.63 2.63 0 0 0 .705-.1 4.34 4.34 0 0 0 .755-.285L5.34 12.33a3.65 3.65 0 0 1-.88.3 4.954 4.954 0 0 1-1.03.106z"/><path id="path10_fill" d="M5.559 9.047v-.64a2.473 2.473 0 0 1-.87.596 3.495 3.495 0 0 1-1.425.265 4.242 4.242 0 0 1-1.28-.185 2.935 2.935 0 0 1-1.033-.56 2.616 2.616 0 0 1-.694-.918A2.999 2.999 0 0 1 0 6.325a2.67 2.67 0 0 1 .32-1.314c.194-.36.468-.673.8-.914a3.45 3.45 0 0 1 1.12-.538 5.27 5.27 0 0 1 2.422-.054c.312.072.614.18.902.32v-.467a1.304 1.304 0 0 0-.413-1.078c-.35-.24-.77-.353-1.193-.32a4.389 4.389 0 0 0-1.45.23c-.455.16-.885.382-1.28.66L.535 1.03C.761.88.997.744 1.242.627c.275-.128.56-.235.851-.32.32-.1.648-.176.98-.227C3.432.027 3.795 0 4.16 0c.266 0 .538 0 .823.042.28.029.556.085.825.17.27.086.525.208.762.364.249.164.466.372.64.614.195.28.34.594.428.924a4.7 4.7 0 0 1 .157 1.298v5.635H5.56zM3.696 7.28a2.49 2.49 0 0 0 1.075-.218c.286-.131.551-.304.788-.511v-.96c-.252-.09-.511-.16-.775-.208a4.658 4.658 0 0 0-.876-.08c-.22-.002-.44.017-.656.055-.19.03-.374.09-.544.179a.988.988 0 0 0-.368.32.793.793 0 0 0-.135.463.815.815 0 0 0 .381.698c.338.196.727.287 1.117.262h-.007z"/><path id="path11_fill" d="M0 12.524V1.059L2.256 0v12.524H0z"/><path id="path12_fill" d="M1.469 2.878a1.504 1.504 0 0 1-.58-.108 1.386 1.386 0 0 1-.46-.301 1.356 1.356 0 0 1-.32-.454A1.429 1.429 0 0 1 0 1.455C.007 1.26.054 1.067.138.89.213.717.32.561.458.432.587.294.744.185.918.112c.373-.15.79-.15 1.162 0 .174.075.332.183.464.32a1.4 1.4 0 0 1 .435 1.023 1.381 1.381 0 0 1-.435 1.014 1.469 1.469 0 0 1-1.075.41z"/><path id="path13_fill" d="M4.128 9.285A2.52 2.52 0 0 1 3 9.048a2.118 2.118 0 0 1-.761-.617v3.09L0 12.546V.209h2.24v.64c.204-.263.467-.473.768-.615A2.593 2.593 0 0 1 4.147.001a3.582 3.582 0 0 1 1.497.32c.452.2.85.506 1.159.892.34.431.59.926.739 1.455.186.648.275 1.32.265 1.996a6.412 6.412 0 0 1-.275 1.944 4.4 4.4 0 0 1-.768 1.455 3.35 3.35 0 0 1-1.165.915c-.461.21-.964.315-1.471.307zm-.359-2.181a1.514 1.514 0 0 0 1.309-.64c.34-.545.5-1.182.46-1.823a4.405 4.405 0 0 0-.111-1.026 2.401 2.401 0 0 0-.34-.778 1.545 1.545 0 0 0-1.318-.665 2.097 2.097 0 0 0-.924.186 1.715 1.715 0 0 0-.618.524V6.4c.066.095.143.18.23.256.102.093.215.174.336.24.14.073.289.13.442.17.176.034.355.047.534.038z"/><path id="path14_fill" d="M0 9.072V.207h2.256v.786c.127-.285.33-.53.589-.707A1.79 1.79 0 0 1 3.897.002c.338-.005.674.056.989.179.297.122.572.29.816.499l-.304 2.056a3.603 3.603 0 0 0-.707-.368 2.526 2.526 0 0 0-.912-.147c-.193 0-.385.028-.57.083-.185.058-.353.16-.49.298a1.512 1.512 0 0 0-.338.585 2.998 2.998 0 0 0-.125.94v4.945H0z"/><path id="path15_fill" d="M4.077 9.284c-.58.008-1.156-.1-1.693-.32a3.52 3.52 0 0 1-1.28-.914A4.157 4.157 0 0 1 .29 6.594 6.118 6.118 0 0 1 0 4.65c-.01-.66.087-1.318.288-1.948.17-.538.448-1.036.816-1.464A3.5 3.5 0 0 1 2.385.32a4.648 4.648 0 0 1 3.388 0c.49.204.929.518 1.28.918.367.428.644.926.812 1.464.198.63.294 1.288.285 1.948a6.211 6.211 0 0 1-.285 1.944 4.096 4.096 0 0 1-.81 1.468 3.52 3.52 0 0 1-1.279.915c-.54.215-1.118.32-1.699.307zm0-2.168c.264.005.525-.053.762-.17.227-.111.424-.277.572-.483.167-.234.29-.496.362-.774.087-.337.13-.684.125-1.033a3.98 3.98 0 0 0-.125-1.042 2.424 2.424 0 0 0-.362-.777 1.539 1.539 0 0 0-.572-.493 1.796 1.796 0 0 0-1.524 0 1.564 1.564 0 0 0-.572.493 2.42 2.42 0 0 0-.359.777c-.09.34-.133.69-.128 1.042-.005.349.038.697.128 1.033.072.278.194.54.359.774.149.206.345.373.573.486.237.112.499.164.761.154v.013z"/></defs></svg>